<?xml version="1.0" standalone="no"?>
<!DOCTYPE svg PUBLIC "-//W3C//DTD SVG 1.1//EN" "http://www.w3.org/Graphics/SVG/1.1/DTD/svg11.dtd" >
<svg xmlns="http://www.w3.org/2000/svg" xmlns:xlink="http://www.w3.org/1999/xlink" version="1.1">
<metadata></metadata>
<defs>
<font id="hemi_headbold_italic" horiz-adv-x="1382" >
<font-face units-per-em="2048" ascent="1524" descent="-524" />
<missing-glyph horiz-adv-x="565" />
<glyph unicode="&#x28;C&#x29;" horiz-adv-x="1400" d="M135 182q0 46 12 107l172 809q34 157 116.5 222.5t244.5 65.5h623q130 0 189.5 -42.5t59.5 -139.5q0 -44 -12 -106l-172 -809q-34 -158 -115 -223.5t-243 -65.5h-623q-132 0 -192 42.5t-60 139.5zM322 223q0 -36 20.5 -52.5t65.5 -16.5h645q55 0 85.5 25.5t43.5 86.5 l182 854q4 28 4 41q0 37 -21 53.5t-65 16.5h-645q-58 0 -87.5 -25t-41.5 -86l-182 -854q-4 -16 -4 -43zM606 504q0 27 4 41l68 315q12 60 46 88.5t97 28.5h271l-33 -150h-180q-34 0 -43 -39l-35 -170q-2 -6 -2 -14q0 -20 28 -20h183l-33 -156h-272q-52 0 -75.5 18.5 t-23.5 57.5z" />
<glyph unicode="&#x28;R&#x29;" horiz-adv-x="1400" d="M135 182q0 46 12 107l172 809q34 157 116.5 222.5t244.5 65.5h623q130 0 189.5 -42.5t59.5 -139.5q0 -44 -12 -106l-172 -809q-34 -158 -115 -223.5t-243 -65.5h-623q-132 0 -192 42.5t-60 139.5zM322 223q0 -36 20.5 -52.5t65.5 -16.5h645q55 0 85.5 25.5t43.5 86.5 l182 854q4 28 4 41q0 37 -21 53.5t-65 16.5h-645q-58 0 -87.5 -25t-41.5 -86l-182 -854q-4 -16 -4 -43zM539 428l75 360h158l-12 -63h127q25 0 34.5 8t12.5 27l12 55q2 4 2 14q0 19 -26 19h-295l28 129h387q78 0 78 -62q0 -10 -4 -30l-24 -121q-15 -79 -88 -90q65 -7 65 -51 q0 -13 -2 -19l-37 -176h-156l31 145v9q0 20 -35 20h-137l-37 -174h-157z" />
<glyph horiz-adv-x="0" />
<glyph horiz-adv-x="682" />
<glyph horiz-adv-x="565" />
<glyph unicode=" "  horiz-adv-x="565" />
<glyph unicode="&#x09;" horiz-adv-x="565" />
<glyph unicode="&#xa0;" horiz-adv-x="565" />
<glyph unicode="!" horiz-adv-x="532" d="M135 0l66 309h262l-66 -309h-262zM225 432l203 954h262l-203 -954h-262z" />
<glyph unicode="&#x22;" horiz-adv-x="813" d="M289 838l135 632h207l-135 -632h-207zM668 838l135 632h207l-136 -632h-206z" />
<glyph unicode="#" horiz-adv-x="1101" d="M147 377l31 147h201l72 338h-201l31 148h200l80 376h168l-80 -376h228l79 376h168l-80 -376h199l-31 -148h-198l-72 -338h199l-31 -147h-199l-80 -377h-167l79 377h-227l-80 -377h-168l80 377h-201zM547 524h227l72 338h-228z" />
<glyph unicode="$" horiz-adv-x="1091" d="M152 190l43 203h563q42 0 59 13.5t25 48.5l28 137q2 8 2 20q0 33 -43 33h-419q-136 0 -136 103q0 17 7 45l53 254q19 94 72.5 137t158.5 43h183l32 159h203l-33 -159h293l-39 -185h-567q-34 0 -51 -13.5t-23 -45.5l-26 -121q0 -2 -2.5 -10.5t-2.5 -13.5q0 -31 50 -31h419 q134 0 134 -105q0 -5 -5 -40l-61 -291q-21 -95 -73.5 -138t-155.5 -43h-111l-39 -190h-203l39 190h-374z" />
<glyph unicode="%" horiz-adv-x="1597" d="M266 788q0 21 6 48l97 450q12 63 45 92t100 29h330q53 0 76.5 -19t23.5 -59q0 -11 -4 -43l-96 -450q-14 -63 -48 -92t-100 -29h-329q-53 0 -77 18t-24 55zM301 0l1129 1386h163l-1128 -1386h-164zM467 901q0 -18 27 -18h145q20 0 29 6.5t12 23.5l63 297v13q0 22 -28 22 h-146q-31 0 -37 -33l-63 -299q-2 -4 -2 -12zM946 53q0 20 6 47l97 451q12 63 45 92t100 29h330q53 0 76.5 -19t23.5 -59q0 -11 -4 -43l-96 -451q-14 -63 -48 -91.5t-100 -28.5h-329q-53 0 -77 18t-24 55zM1147 166q0 -19 27 -19h145q20 0 29 7t12 24l63 297v12q0 23 -28 23 h-146q-31 0 -37 -33l-63 -299q-2 -4 -2 -12z" />
<glyph unicode="&#x26;" horiz-adv-x="1366" d="M143 152q0 27 11 84l73 348q30 137 197 151q-125 13 -125 121q0 23 6 53l51 242q25 120 94.5 177.5t196.5 57.5h658l-52 -241h-544q-38 0 -56.5 -18t-27.5 -62l-41 -191q-4 -20 -4 -26q0 -21 12.5 -29t44.5 -8h340l31 145h245l-30 -145h264l-45 -209h-264l-56 -262 q-6 -21 -6 -37q0 -24 15 -31.5t53 -7.5h174l-55 -264h-185q-107 0 -165.5 20.5t-71.5 73.5q-55 -94 -199 -94h-344q-102 0 -148.5 37.5t-46.5 114.5zM465 309q0 -25 13 -35t44 -10h338l72 338h-340q-38 0 -56 -15t-26 -52l-41 -191q-4 -14 -4 -35z" />
<glyph unicode="'" horiz-adv-x="434" d="M289 838l135 632h207l-135 -632h-207z" />
<glyph unicode="(" horiz-adv-x="776" d="M223 47q0 65 19 158l204 969q102 490 615 503l-33 -153q-176 -12 -267 -89.5t-130 -260.5l-205 -969q-16 -82 -16 -131q0 -110 63 -159t201 -58l-33 -154q-204 5 -311 87.5t-107 256.5z" />
<glyph unicode=")" horiz-adv-x="778" d="M6 -297l33 154q175 12 265.5 88.5t129.5 259.5l205 969q16 78 16 131q0 109 -63 158.5t-199 60.5l33 153q203 -5 309.5 -88t106.5 -258q0 -59 -21 -166l-200 -952q-55 -261 -210.5 -382.5t-404.5 -127.5z" />
<glyph unicode="*" horiz-adv-x="1103" d="M238 1040l49 154l391 -141l-14 415h159l-12 -413l391 139l49 -152l-395 -116l254 -328l-129 -94l-236 342l-235 -344l-127 96l252 326z" />
<glyph unicode="+" horiz-adv-x="1294" d="M246 627l37 178h444l94 444h180l-94 -444h445l-37 -178h-445l-96 -447h-180l96 447h-444z" />
<glyph unicode="," horiz-adv-x="530" d="M20 -201l197 510h262l-229 -510h-230z" />
<glyph unicode="-" horiz-adv-x="788" d="M195 618l36 173h660l-37 -173h-659z" />
<glyph unicode="." horiz-adv-x="489" d="M115 0l65 309h262l-65 -309h-262z" />
<glyph unicode="/" horiz-adv-x="845" d="M51 -59l852 1529h189l-852 -1529h-189z" />
<glyph unicode="0" horiz-adv-x="1331" d="M143 150q0 35 13 92l190 903q27 126 92.5 183.5t194.5 57.5h651q103 0 149 -36.5t46 -114.5q0 -26 -11 -90l-190 -903q-27 -126 -92.5 -184t-194.5 -58h-651q-103 0 -150 37t-47 113zM465 317q0 -22 13.5 -31.5t45.5 -9.5h383q48 0 69.5 16t29.5 54l147 690q4 28 4 35 q0 26 -16 36.5t-54 10.5h-382q-41 0 -60.5 -17.5t-28.5 -62.5l-147 -692q-4 -20 -4 -29z" />
<glyph unicode="1" horiz-adv-x="636" d="M233 0l238 1122h-188l55 264h481l-293 -1386h-293z" />
<glyph unicode="2" horiz-adv-x="1329" d="M115 0l112 532q30 142 98 202.5t210 60.5h493q42 0 60.5 17.5t27.5 61.5l39 185q6 21 6 39q0 22 -14.5 31.5t-48.5 9.5h-391q-42 0 -63 -17.5t-30 -62.5l-20 -101h-281l41 193q25 120 94.5 177.5t196.5 57.5h631q103 0 148.5 -36.5t45.5 -112.5q0 -34 -10 -92l-74 -352 q-24 -115 -87.5 -170.5t-178.5 -55.5h-524q-42 0 -59 -17.5t-29 -72.5l-47 -217h811l-53 -260h-1104z" />
<glyph unicode="3" horiz-adv-x="1294" d="M119 152q0 32 10 84l45 215h285l-25 -121q-4 -24 -4 -31q0 -23 14.5 -33t47.5 -10h391q40 0 60.5 17t29.5 57l45 217q2 8 2 22q0 20 -15 28.5t-49 8.5h-303l45 205h303q40 0 57 13.5t25 49.5l41 193q4 24 4 33q0 22 -13.5 30.5t-45.5 8.5h-387q-42 0 -61.5 -15.5 t-26.5 -56.5l-23 -109h-280l41 193q25 120 94.5 177.5t198.5 57.5h604q106 0 154.5 -38t48.5 -117q0 -37 -9 -80l-55 -260q-34 -158 -192 -174q135 -13 135 -111q0 -13 -4 -41l-70 -329q-26 -122 -91 -179t-194 -57h-637q-103 0 -149.5 37t-46.5 115z" />
<glyph unicode="4" horiz-adv-x="1271" d="M121 268l51 240l752 878h393l-187 -880h185l-51 -238h-185l-55 -268h-270l55 268h-688zM449 506h411l133 624z" />
<glyph unicode="5" horiz-adv-x="1331" d="M154 152q0 32 10 84l45 215h287l-27 -125q-4 -28 -4 -35q0 -20 11 -27.5t42 -7.5h389q44 0 61.5 14.5t26.5 55.5l49 231q5 30 5 31q0 37 -54 37h-749l162 761h1067l-56 -264h-774l-57 -268h618q160 0 160 -137q0 -30 -6 -60l-88 -415q-27 -127 -92 -184.5t-195 -57.5 h-637q-101 0 -147.5 37t-46.5 115z" />
<glyph unicode="6" horiz-adv-x="1314" d="M143 150q0 35 13 92l190 903q27 127 92 184t195 57h627q104 0 152 -38t48 -117q0 -41 -8 -80l-41 -193h-278l20 101q4 28 4 35q0 24 -15.5 33.5t-54.5 9.5h-391q-43 0 -61 -15.5t-27 -62.5l-51 -242h631q160 0 160 -133q0 -11 -9 -63l-79 -379q-27 -127 -91.5 -184.5 t-195.5 -57.5h-633q-104 0 -150.5 36t-46.5 114zM453 303q0 -25 13.5 -35t43.5 -10h405q43 0 64 19t31 71l39 189q2 10 2 26q0 41 -58 41h-481l-53 -256q-6 -27 -6 -45z" />
<glyph unicode="7" horiz-adv-x="1126" d="M164 0l805 1122h-674l55 264h993l-43 -208l-817 -1178h-319z" />
<glyph unicode="8" horiz-adv-x="1318" d="M143 152q0 27 11 84l69 329q31 138 197 152q-125 13 -125 121q0 23 6 53l55 260q25 120 94.5 177.5t198.5 57.5h604q106 0 154.5 -38t48.5 -117q0 -41 -8 -80l-55 -260q-34 -158 -193 -174q135 -13 135 -111q0 -13 -4 -41l-69 -329q-26 -122 -91 -179t-194 -57h-637 q-103 0 -150 37t-47 115zM455 299q0 -23 14.5 -33t46.5 -10h391q40 0 61.5 17.5t28.5 56.5l45 219q2 8 2 22q0 22 -13.5 30.5t-47.5 8.5h-391q-42 0 -62 -14t-26 -47l-45 -219q-4 -24 -4 -31zM573 844q0 -20 14 -28.5t46 -8.5h391q41 0 58.5 13.5t25.5 49.5l41 197 q4 24 4 29q0 23 -14 32t-47 9h-387q-41 0 -60.5 -15t-26.5 -55l-40 -197q-5 -25 -5 -26z" />
<glyph unicode="9" horiz-adv-x="1327" d="M150 154q0 30 10 82l45 208h282l-24 -110q-4 -14 -4 -37q0 -24 15 -32.5t54 -8.5h390q43 0 60.5 15.5t27.5 62.5l49 231h-631q-160 0 -160 133q0 33 8 64l80 383q27 127 92 184t195 57h635q103 0 148.5 -36.5t45.5 -112.5q0 -34 -10 -92l-190 -903q-27 -127 -92 -184.5 t-195 -57.5h-631q-104 0 -152 38t-48 116zM559 817q0 -22 13.5 -30.5t45.5 -8.5h482l55 262q6 27 6 45q0 25 -13.5 35t-43.5 10h-408q-43 0 -62.5 -18.5t-29.5 -71.5l-41 -194q-4 -20 -4 -29z" />
<glyph unicode=":" horiz-adv-x="516" d="M127 0l66 309h262l-66 -309h-262zM281 729l65 309h262l-65 -309h-262z" />
<glyph unicode=";" horiz-adv-x="538" d="M14 -201l197 510h262l-229 -510h-230zM299 729l66 309h262l-66 -309h-262z" />
<glyph unicode="&#x3c;" horiz-adv-x="1294" d="M242 612l28 131l1166 459l-41 -194l-848 -330l708 -330l-41 -192z" />
<glyph unicode="=" horiz-adv-x="1294" d="M193 383l38 178h1069l-38 -178h-1069zM297 868l37 181h1069l-37 -181h-1069z" />
<glyph unicode="&#x3e;" horiz-adv-x="1294" d="M145 156l41 192l848 330l-708 330l41 194l972 -459l-28 -131z" />
<glyph unicode="?" horiz-adv-x="1284" d="M291 958l41 193q25 120 94.5 177.5t196.5 57.5h639q104 0 150 -36.5t46 -112.5q0 -34 -10 -92l-68 -324q-26 -120 -85 -176.5t-171 -56.5h-245q-32 0 -45 -12t-21 -46l-22 -98h-259l41 191q40 180 222 180h219q45 0 63 14.5t27 59.5l39 178q4 28 4 37q0 25 -15.5 35 t-52.5 10h-399q-41 0 -60 -17.5t-28 -60.5l-21 -101h-280zM440 0l66 309h262l-66 -309h-262z" />
<glyph unicode="@" horiz-adv-x="1265" d="M59 -238q0 30 9 74l256 1204q21 99 70.5 143t148.5 44h700q76 0 111 -27t35 -84q0 -23 -11 -76l-164 -772q-21 -100 -68.5 -143t-146.5 -43h-315q-79 0 -114 27.5t-35 87.5q0 35 8 71l82 381q22 99 74 143t145 44h207l-35 -162h-150q-31 0 -45 -13.5t-22 -48.5l-64 -301 q-6 -21 -6 -35q0 -18 10.5 -25t34.5 -7h195q35 0 50 14t23 51l146 690q4 24 4 31q0 33 -43 33h-569q-34 0 -48 -13.5t-22 -50.5l-229 -1079q-1 -5 -2 -12.5t-2 -12t-1 -8.5q0 -18 11 -25t39 -7h782l-43 -205h-858q-79 0 -113.5 26.5t-34.5 85.5z" />
<glyph unicode="A" horiz-adv-x="1302" d="M33 0l721 1386h407l107 -1386h-314l-14 215h-500l-106 -215h-301zM551 444h379l-43 664z" />
<glyph unicode="B" horiz-adv-x="1359" d="M115 0l217 1030h311l-47 -223h434q44 0 62 13.5t26 49.5l35 168q6 21 6 37q0 24 -14.5 33.5t-48.5 9.5h-744l56 268h882q104 0 152.5 -37.5t48.5 -115.5q0 -30 -10 -82l-56 -260q-18 -84 -64 -125t-120 -49q135 -13 135 -111q0 -13 -4 -41l-69 -329q-25 -122 -91.5 -179 t-193.5 -57h-903zM483 272h439q48 0 67 15.5t29 64.5l39 183q4 24 4 32q0 25 -15.5 34t-52.5 9h-438z" />
<glyph unicode="C" horiz-adv-x="1200" d="M143 152q0 42 11 90l190 903q27 126 93 183.5t194 57.5h780l-57 -276h-627q-49 0 -67 -15.5t-27 -62.5l-146 -676q-4 -24 -4 -32q0 -24 15 -33.5t53 -9.5h631l-60 -281h-784q-103 0 -149 37t-46 115z" />
<glyph unicode="D" horiz-adv-x="1384" d="M115 0l215 1012h307l-158 -742h436q53 0 89 34t49 99l123 578q6 24 6 47q0 86 -88 86h-744l58 272h800q303 0 303 -245q0 -51 -12 -109l-145 -678q-75 -354 -439 -354h-800z" />
<glyph unicode="E" horiz-adv-x="1247" d="M104 0l215 1014h322l-49 -226h510l-47 -221h-510l-62 -291h707l-57 -276h-1029zM340 1116l57 270h1028l-57 -270h-1028z" />
<glyph unicode="F" horiz-adv-x="1214" d="M113 0l215 1012h321l-49 -230h522l-49 -231h-522l-117 -551h-321zM348 1114l58 272h1026l-58 -272h-1026z" />
<glyph unicode="G" horiz-adv-x="1320" d="M143 150q0 35 13 92l190 903q27 126 92.5 183.5t194.5 57.5h856l-57 -276h-721q-40 0 -56.5 -15t-25.5 -61l-150 -706q-4 -20 -4 -27q0 -20 12 -27.5t43 -7.5h445l67 316h-274l47 223h565l-170 -805h-870q-103 0 -150 37t-47 113z" />
<glyph unicode="H" horiz-adv-x="1394" d="M113 0l293 1386h311l-117 -552h543l117 552h311l-293 -1386h-311l120 573h-542l-121 -573h-311z" />
<glyph unicode="I" horiz-adv-x="552" d="M119 0l293 1386h311l-293 -1386h-311z" />
<glyph unicode="J" horiz-adv-x="1116" d="M57 0l60 281h559q45 0 62 14.5t26 58.5l162 762h-242l57 270h553l-241 -1144q-27 -126 -92 -184t-193 -58h-711z" />
<glyph unicode="K" horiz-adv-x="1445" d="M113 0l293 1386h311l-293 -1386h-311zM600 590l29 141l639 655h340l-568 -567h222q206 0 206 -182q0 -45 -12 -100l-113 -537h-319l104 494q7 35 7 49q0 27 -17.5 37t-62.5 10h-455z" />
<glyph unicode="L" horiz-adv-x="1103" d="M111 0l292 1386h312l-234 -1105h619l-60 -281h-929z" />
<glyph unicode="M" horiz-adv-x="1658" d="M109 0l292 1386h336l181 -964l598 964h323l-293 -1386h-256l178 842l-514 -842h-243l-166 842l-178 -842h-258z" />
<glyph unicode="N" horiz-adv-x="1439" d="M111 0l292 1386h293l455 -827l174 827h291l-293 -1386h-207l-524 909l-193 -909h-288z" />
<glyph unicode="O" horiz-adv-x="1368" d="M143 150q0 35 13 92l190 903q27 126 92.5 183.5t194.5 57.5h690q102 0 148.5 -37t46.5 -114q0 -29 -11 -90l-190 -903q-27 -126 -93 -184t-194 -58h-690q-103 0 -150 37t-47 113zM481 319q0 -23 14 -33t46 -10h387q48 0 69 16t29 54l148 690q4 24 4 33q0 26 -16.5 36.5 t-55.5 10.5h-387q-40 0 -58.5 -17t-27.5 -63l-148 -690q-4 -20 -4 -27z" />
<glyph unicode="P" horiz-adv-x="1300" d="M115 0l215 1014h311l-68 -316h428q38 0 53.5 16t26.5 64l60 273q4 20 4 28q0 21 -12.5 29t-42.5 8h-740l58 270h868q103 0 148.5 -36.5t45.5 -114.5q0 -32 -10 -90l-96 -457q-27 -126 -92.5 -184t-194.5 -58h-557l-94 -446h-311z" />
<glyph unicode="Q" horiz-adv-x="1378" d="M160 231q0 41 12 93l174 821q27 126 92.5 183.5t194.5 57.5h690q102 0 148.5 -37t46.5 -114q0 -29 -11 -90l-284 -1342h-310l263 1237q4 24 4 33q0 23 -14.5 32t-51.5 9h-403q-35 0 -52 -16t-26 -58l-131 -618q-4 -24 -4 -29q0 -20 11.5 -28.5t39.5 -8.5h379l-58 -274 h-514q-103 0 -149.5 36.5t-46.5 112.5z" />
<glyph unicode="R" horiz-adv-x="1357" d="M113 0l215 1014h311l-57 -269h426q44 0 60.5 14.5t25.5 57.5l49 225q4 24 4 33q0 24 -14.5 32.5t-49.5 8.5h-735l58 270h880q104 0 152.5 -37.5t48.5 -115.5q0 -30 -10 -82l-64 -301q-41 -185 -213 -203q156 -11 156 -121q0 -29 -4 -45l-101 -481h-311l94 453q4 24 4 30 q0 19 -13 26t-44 7h-449l-108 -516h-311z" />
<glyph unicode="S" horiz-adv-x="1323" d="M106 0l58 270h739q37 0 55 15t25 53l41 192q2 8 2 23q0 20 -12 28.5t-41 8.5h-547q-160 0 -160 137q0 25 6 59l76 359q27 127 92 184t197 57h862l-55 -264h-735q-32 0 -47 -14t-23 -51l-39 -183q-4 -20 -4 -26q0 -17 10 -24t35 -7h555q162 0 162 -139q0 -27 -6 -57 l-80 -379q-27 -126 -92.5 -184t-194.5 -58h-879z" />
<glyph unicode="T" horiz-adv-x="1091" d="M287 1114l57 272h985l-57 -272h-338l-236 -1114h-311l236 1114h-336z" />
<glyph unicode="U" d="M150 152q0 49 10 90l241 1144h312l-219 -1036q-7 -28 -7 -37q0 -22 14 -29.5t48 -7.5h409q42 0 61 15t28 59l219 1036h299l-242 -1144q-27 -126 -93 -184t-194 -58h-690q-104 0 -150 37t-46 115z" />
<glyph unicode="V" horiz-adv-x="1302" d="M326 1386h321l78 -1011l526 1011h310l-750 -1386h-350z" />
<glyph unicode="W" horiz-adv-x="2043" d="M326 1386h319l23 -1015l501 1015h312l43 -1013l473 1013h305l-670 -1386h-350l-51 989l-504 -989h-348z" />
<glyph unicode="X" horiz-adv-x="1355" d="M23 0l598 737l-271 649h338l193 -512l409 512h322l-557 -673l278 -713h-344l-196 561l-439 -561h-331z" />
<glyph unicode="Y" horiz-adv-x="1263" d="M319 1386h326l170 -546l402 546h311l-621 -815l-121 -571h-311l121 571z" />
<glyph unicode="Z" horiz-adv-x="1232" d="M100 0l54 252l839 862h-643l58 272h1017l-49 -239l-827 -871h641l-57 -276h-1033z" />
<glyph unicode="[" horiz-adv-x="634" d="M90 -297l420 1974h410l-33 -147h-225l-357 -1675h225l-30 -152h-410z" />
<glyph unicode="\" horiz-adv-x="845" d="M377 1470h188l201 -1529h-188z" />
<glyph unicode="]" horiz-adv-x="634" d="M8 -297l31 152h229l357 1675h-230l33 147h410l-420 -1974h-410z" />
<glyph unicode="^" horiz-adv-x="1005" d="M211 582l518 804h131l176 -804h-194l-107 520l-329 -520h-195z" />
<glyph unicode="_" horiz-adv-x="1257" d="M-53 -328l37 170h1224l-37 -170h-1224z" />
<glyph unicode="`" horiz-adv-x="761" d="M449 1583h231l215 -418h-182z" />
<glyph unicode="a" horiz-adv-x="1290" d="M135 119q0 28 10 76l52 245q25 116 69.5 157.5t143.5 41.5h526l-37 -176h-377q-29 0 -41 -10.5t-18 -42.5l-23 -109q-4 -24 -4 -29q0 -15 8.5 -20.5t30.5 -5.5h479l109 508q2 8 2 22q0 35 -49 35h-703l47 225h848q88 0 126 -29.5t38 -93.5q0 -27 -10 -79l-176 -834h-903 q-77 0 -112.5 29t-35.5 90z" />
<glyph unicode="b" horiz-adv-x="1282" d="M106 0l312 1470h287l-259 -1216h447q30 0 43.5 12t21.5 45l89 420q4 20 4 27q0 18 -10 24t-35 6h-344l53 248h487q164 0 164 -137q0 -15 -8 -65l-133 -631q-24 -107 -79 -155t-163 -48h-877z" />
<glyph unicode="c" horiz-adv-x="1110" d="M133 123q0 28 10 80l133 631q22 107 76 154.5t162 47.5h731l-53 -252h-584q-34 0 -46.5 -10.5t-20.5 -44.5l-88 -414q-4 -20 -4 -26q0 -17 10.5 -24t36.5 -7h583l-53 -258h-731q-85 0 -123.5 29.5t-38.5 93.5z" />
<glyph unicode="d" horiz-adv-x="1286" d="M133 123q0 28 10 80l133 631q42 202 238 202h490l-54 -248h-342q-33 0 -46.5 -11t-20.5 -46l-88 -420q-4 -20 -4 -26q0 -17 10.5 -24t36.5 -7h444l258 1216h289l-311 -1470h-881q-85 0 -123.5 29.5t-38.5 93.5z" />
<glyph unicode="e" horiz-adv-x="1265" d="M123 123q0 28 10 80l133 631q22 107 76 154.5t164 47.5h700q77 0 111.5 -28.5t34.5 -89.5q0 -32 -9 -76l-86 -408h-690l35 172h418l31 139q2 10 2 27q0 15 -9.5 22t-33.5 7h-412q-34 0 -47 -11.5t-21 -46.5l-96 -446q-4 -24 -4 -31q0 -18 10 -24t37 -6h699l-50 -236h-839 q-87 0 -125.5 29.5t-38.5 93.5z" />
<glyph unicode="f" horiz-adv-x="710" d="M109 0l260 1233q29 129 86.5 183t158.5 54h357l-47 -223h-215q-28 0 -42 -12t-20 -41l-33 -158h256l-47 -225h-256l-172 -811h-286z" />
<glyph unicode="g" horiz-adv-x="1255" d="M33 -434l53 248h692q33 0 47.5 12.5t22.5 46.5l194 915h-446q-33 0 -47.5 -12t-20.5 -45l-94 -442q-2 -10 -2 -23q0 -19 10.5 -26t36.5 -7h344l-49 -233h-491q-85 0 -123.5 29.5t-38.5 93.5q0 28 10 80l133 631q22 107 76 154.5t162 47.5h880l-270 -1267 q-24 -108 -77.5 -155.5t-162.5 -47.5h-839z" />
<glyph unicode="h" horiz-adv-x="1333" d="M111 0l311 1470h287l-117 -546q76 112 203 112h454q84 0 122 -29t38 -96q0 -38 -8 -77l-176 -834h-285l154 731q4 20 4 25q0 18 -12 25t-39 7h-429q-31 0 -45.5 -12t-21.5 -45l-154 -731h-286z" />
<glyph unicode="i" horiz-adv-x="518" d="M115 0l219 1036h287l-220 -1036h-286zM360 1159l66 311h289l-66 -311h-289z" />
<glyph unicode="j" horiz-adv-x="546" d="M-244 -434l54 248h233q32 0 46 11.5t20 41.5l247 1169h287l-270 -1267q-24 -107 -77.5 -155t-160.5 -48h-379zM381 1159l65 311h289l-65 -311h-289z" />
<glyph unicode="k" horiz-adv-x="1323" d="M109 0l311 1470h289l-312 -1470h-288zM539 426l22 104l539 506h315l-454 -415h198q156 0 156 -144q0 -37 -8 -76l-84 -401h-287l72 344q4 28 4 37q0 25 -14.5 35t-49.5 10h-409z" />
<glyph unicode="l" horiz-adv-x="507" d="M111 0l311 1470h287l-312 -1470h-286z" />
<glyph unicode="m" horiz-adv-x="1916" d="M104 0l220 1036h276l-25 -112q73 112 203 112h346q79 0 118 -26.5t40 -85.5q46 60 93.5 86t113.5 26h346q83 0 121.5 -30t38.5 -97q0 -36 -8 -75l-177 -834h-286l153 731q4 20 4 27q0 17 -11.5 23.5t-39.5 6.5h-307q-32 0 -47 -11t-21 -40l-155 -737h-287l154 731 q4 20 4 27q0 17 -11 23.5t-38 6.5h-310q-31 0 -45.5 -12t-21.5 -45l-154 -731h-287z" />
<glyph unicode="n" horiz-adv-x="1329" d="M104 0l220 1036h276l-25 -112q73 112 203 112h465q84 0 122 -29t38 -96q0 -38 -8 -77l-176 -834h-285l153 731q1 4 2 9.5t2 9t1 6.5q0 18 -12.5 25t-39.5 7h-428q-31 0 -45.5 -12t-21.5 -45l-154 -731h-287z" />
<glyph unicode="o" horiz-adv-x="1296" d="M133 123q0 28 10 80l133 631q22 107 76 154.5t162 47.5h705q88 0 125.5 -29.5t37.5 -93.5q0 -27 -10 -79l-133 -631q-24 -108 -77.5 -155.5t-162.5 -47.5h-704q-85 0 -123.5 29.5t-38.5 93.5zM449 283q0 -29 45 -29h405q37 0 53.5 12t22.5 43l88 422q4 20 4 25 q0 18 -12.5 25t-42.5 7h-406q-32 0 -45.5 -11.5t-19.5 -45.5l-88 -422q-4 -20 -4 -26z" />
<glyph unicode="p" horiz-adv-x="1277" d="M12 -434l314 1470h876q88 0 126 -30.5t38 -94.5q0 -38 -8 -77l-133 -631q-23 -105 -83 -154t-159 -49h-487l51 246h344q31 0 44.5 11.5t20.5 45.5l91 420q2 10 2 27q0 19 -9 25.5t-34 6.5h-447l-260 -1216h-287z" />
<glyph unicode="q" horiz-adv-x="1282" d="M135 133q0 34 8 70l133 631q22 107 76 154.5t162 47.5h881l-314 -1470h-288l260 1216h-445q-34 0 -46.5 -12t-20.5 -47l-90 -420q-5 -25 -5 -27q0 -18 11 -24t37 -6h342l-52 -246h-489q-160 0 -160 133z" />
<glyph unicode="r" horiz-adv-x="923" d="M104 0l220 1036h278l-24 -112q38 59 86.5 85.5t115.5 26.5h301l-53 -248h-414q-31 0 -46.5 -12t-22.5 -45l-154 -731h-287z" />
<glyph unicode="s" horiz-adv-x="1271" d="M106 0l50 238h710q32 0 44 9.5t18 39.5l22 102q2 6 2 17q0 26 -41 26h-555q-133 0 -133 103q0 21 6 45l58 276q19 94 71.5 137t157.5 43h856l-49 -231h-707q-32 0 -46.5 -12t-20.5 -43l-19 -86q-2 -6 -2 -19q0 -33 43 -33h562q135 0 135 -104q0 -13 -4 -41l-62 -287 q-21 -95 -73.5 -137.5t-157.5 -42.5h-865z" />
<glyph unicode="t" horiz-adv-x="700" d="M137 123q0 28 10 80l238 1122h287l-62 -289h250l-47 -225h-250l-112 -530q-5 -25 -5 -27q0 -17 11 -23t35 -6h188l-47 -225h-334q-85 0 -123.5 29.5t-38.5 93.5z" />
<glyph unicode="u" horiz-adv-x="1310" d="M137 125q0 30 10 78l177 833h286l-155 -731q-4 -20 -4 -26q0 -18 11 -25.5t38 -7.5h411q32 0 47.5 12.5t22.5 46.5l156 731h286l-219 -1036h-276l22 111q-38 -58 -86 -84.5t-114 -26.5h-451q-83 0 -122.5 29.5t-39.5 95.5z" />
<glyph unicode="v" horiz-adv-x="1234" d="M248 1036h309l119 -753l454 753h295l-649 -1036h-344z" />
<glyph unicode="w" horiz-adv-x="1845" d="M248 1036h315l27 -741l389 741h338l55 -739l361 739h303l-541 -1036h-362l-64 719l-393 -719h-357z" />
<glyph unicode="x" horiz-adv-x="1253" d="M18 0l496 553l-244 483h340l178 -370l330 370h324l-461 -501l254 -535h-350l-180 397l-355 -397h-332z" />
<glyph unicode="y" horiz-adv-x="1249" d="M31 -434l53 248h688q35 0 48.5 12t21.5 47l28 127h-589q-85 0 -123.5 29.5t-38.5 93.5q0 28 10 80l176 833h287l-158 -743q-4 -20 -4 -27q0 -33 49 -33h441l170 803h288l-270 -1267q-24 -107 -78 -155t-164 -48h-835z" />
<glyph unicode="z" horiz-adv-x="1169" d="M96 0l47 227l713 568h-590l51 241h973l-43 -205l-704 -585h579l-51 -246h-975z" />
<glyph unicode="{" horiz-adv-x="745" d="M227 0q0 69 17 141l82 381q4 24 4 35q0 34 -18.5 53t-53.5 19h-29l25 121h29q41 0 72 30t42 78l80 381q46 222 181 328.5t370 109.5l-33 -153q-142 -4 -224.5 -75t-111.5 -210l-79 -381q-17 -77 -49.5 -114.5t-88.5 -53.5q74 -22 74 -102q0 -33 -8 -66l-82 -381 q-10 -44 -10 -92q0 -186 225 -192l-33 -154q-193 3 -287 75.5t-94 221.5z" />
<glyph unicode="|" horiz-adv-x="501" d="M94 -297l420 1974h184l-419 -1974h-185z" />
<glyph unicode="}" horiz-adv-x="749" d="M8 -297l33 154q275 9 334 282l63 297q48 221 154 254q-70 20 -70 105q0 27 15 104l71 338q10 55 10 92q0 94 -54.5 142.5t-168.5 52.5l33 153q196 -4 285.5 -77.5t89.5 -225.5q0 -79 -21 -178l-71 -338q-4 -14 -4 -37q0 -71 69 -71h29l-25 -121h-28q-42 0 -73.5 -29.5 t-41.5 -79.5l-72 -338q-52 -247 -181 -361.5t-376 -117.5z" />
<glyph unicode="~" horiz-adv-x="1290" d="M238 590l41 196q57 40 138.5 60t155.5 20q75 0 156.5 -28.5t160 -57t148.5 -28.5q156 0 316 90l-43 -197q-56 -38 -139 -58t-158 -20q-62 0 -127.5 17.5t-112.5 39t-107.5 39t-113.5 17.5q-155 0 -315 -90z" />
<glyph unicode="&#xa1;" horiz-adv-x="532" d="M135 0l203 954h262l-203 -954h-262zM362 1077l66 309h262l-65 -309h-263z" />
<glyph unicode="&#xa2;" horiz-adv-x="1007" d="M176 315q0 28 10 80l133 631q22 107 77 155t163 48h180l33 157h205l-33 -157h232l-50 -232h-495q-32 0 -49 -13t-23 -44l-94 -446q-4 -20 -4 -25q0 -20 11.5 -28.5t37.5 -8.5h496l-52 -239h-231l-39 -193h-205l39 193h-180q-86 0 -124 29t-38 93z" />
<glyph unicode="&#xa3;" horiz-adv-x="1292" d="M207 602l41 189h137l82 393q22 106 76.5 154t161.5 48h638l-55 -264h-477q-31 0 -45.5 -12t-20.5 -43l-57 -276h451l-41 -189h-451l-69 -332h673l-57 -270h-977l127 602h-137z" />
<glyph unicode="&#xa4;" horiz-adv-x="1146" d="M164 317l250 207l73 353l-159 202l112 97l158 -207h352l248 207l76 -97l-252 -202l-74 -353l162 -207l-115 -94l-159 209h-353l-245 -209zM541 551h293l61 297h-293z" />
<glyph unicode="&#xa5;" horiz-adv-x="1179" d="M74 186l30 142h408l29 137h-408l31 143h405l6 37l-249 741h292l154 -538l389 538h277l-568 -741l-6 -37h410l-31 -143h-409l-29 -137h409l-30 -142h-410l-39 -186h-293l39 186h-407z" />
<glyph unicode="&#xa6;" horiz-adv-x="518" d="M90 -297l170 801h207l-170 -801h-207zM338 877l172 800h207l-172 -800h-207z" />
<glyph unicode="&#xa7;" horiz-adv-x="1222" d="M20 -524l46 215h677q37 0 52 12.5t24 52.5l53 244h-563q-85 0 -123.5 29.5t-38.5 93.5q0 23 11 80l207 981q22 107 76 154.5t161 47.5h791l-43 -204h-693q-34 0 -48.5 -14t-20.5 -48l-51 -239h561q86 0 124 -30.5t38 -94.5q0 -34 -9 -78l-213 -1000 q-24 -107 -77.5 -154.5t-161.5 -47.5h-779zM403 246q0 -17 11 -24t39 -7h465l86 410q2 8 2 20q0 29 -48 29h-466l-84 -400q-1 -5 -2 -11t-2 -10t-1 -7z" />
<glyph unicode="&#xa8;" horiz-adv-x="1075" d="M360 1159l66 311h258l-66 -311h-258zM948 1159l66 311h258l-66 -311h-258z" />
<glyph unicode="&#xaa;" horiz-adv-x="831" d="M262 680q0 25 4 41l31 137q14 65 37.5 88t81.5 23h264l-23 -103h-159q-15 0 -20.5 -5.5t-8.5 -20.5l-8 -37q-2 -6 -2 -15q0 -12 20 -12h217l52 238q0 2 1 5.5t1 4.5q0 18 -23 18h-371l29 142h475q92 0 92 -68q0 -19 -6 -43l-98 -459h-504q-82 0 -82 66z" />
<glyph unicode="&#xab;" horiz-adv-x="1093" d="M172 526l53 246l490 344l-47 -223l-367 -248l260 -256l-47 -217zM719 526l53 246l490 344l-48 -223l-366 -248l260 -256l-47 -217z" />
<glyph unicode="&#xac;" horiz-adv-x="1294" d="M231 627l50 235h1091l-151 -708h-236l102 473h-856z" />
<glyph unicode="&#xad;" horiz-adv-x="788" d="M195 618l36 173h660l-37 -173h-659z" />
<glyph unicode="&#xaf;" horiz-adv-x="1169" d="M387 1298l39 183h944l-39 -183h-944z" />
<glyph unicode="&#xb0;" horiz-adv-x="772" d="M326 1020q0 22 6 49l59 277q14 67 48 95.5t102 28.5h305q56 0 81 -18.5t25 -58.5q0 -20 -6 -47l-59 -277q-14 -67 -48.5 -96t-105.5 -29h-305q-55 0 -78.5 18t-23.5 58zM473 1094q0 -25 31 -25h205q22 0 32 9t15 30l45 205q0 3 1 7.5t1 6.5q0 25 -33 25h-205 q-20 0 -30.5 -8.5t-14.5 -30.5l-45 -205q0 -3 -1 -7.5t-1 -6.5z" />
<glyph unicode="&#xb1;" horiz-adv-x="1294" d="M86 -104l43 204h1077l-43 -204h-1077zM246 627l37 178h444l94 444h180l-94 -444h445l-37 -178h-445l-96 -447h-180l96 447h-444z" />
<glyph unicode="&#xb2;" horiz-adv-x="727" d="M233 715l58 270q15 74 49 104.5t106 30.5h228q17 0 24.5 6.5t12.5 24.5l16 82q2 6 2 16q0 17 -24 17h-150q-19 0 -28 -7t-13 -26l-8 -39h-172l20 96q12 59 47.5 88t100.5 29h319q53 0 77 -19t24 -59q0 -11 -4 -43l-39 -184q-12 -58 -44.5 -85.5t-91.5 -27.5h-241 q-17 0 -24.5 -8t-12.5 -27l-19 -88h381l-32 -151h-562z" />
<glyph unicode="&#xb3;" horiz-adv-x="708" d="M233 791q0 12 7 40l24 109h176l-10 -47q-2 -4 -2 -12q0 -19 27 -19h149q32 0 37 31l21 94v8q0 17 -27 17h-129l24 110h129q32 0 35 27l19 86q2 4 2 14q0 17 -27 17h-145q-31 0 -39 -31l-8 -41h-174l20 96q12 60 47 88.5t100 28.5h310q102 0 102 -78q0 -11 -4 -39 l-29 -131q-17 -80 -94 -86q68 -7 68 -57q0 -13 -2 -19l-37 -166q-14 -60 -47 -88t-97 -28h-325q-53 0 -77 18.5t-24 57.5z" />
<glyph unicode="&#xb4;" horiz-adv-x="761" d="M358 1165l396 418h231l-444 -418h-183z" />
<glyph unicode="&#xb5;" horiz-adv-x="1198" d="M16 -434l314 1470h284l-165 -784h356q31 0 45 14.5t22 50.5l154 719h279l-177 -833q-24 -108 -77 -155.5t-162 -47.5h-494l-94 -434h-285z" />
<glyph unicode="&#xb6;" horiz-adv-x="1484" d="M231 694q0 34 9 74l88 408q24 111 80 160.5t170 49.5h1138l-37 -178h-145l-332 -1558h-219l332 1558h-285l-332 -1558h-221l332 1558h-197q-35 0 -49.5 -12t-21.5 -51l-72 -336q-4 -24 -4 -29q0 -20 11 -27.5t38 -7.5h111l-41 -188h-187q-86 0 -126 33.5t-40 103.5z" />
<glyph unicode="&#xb7;" horiz-adv-x="489" d="M219 500l66 309h262l-66 -309h-262z" />
<glyph unicode="&#xb8;" horiz-adv-x="516" d="M-23 -524l168 401h232l-201 -401h-199z" />
<glyph unicode="&#xb9;" horiz-adv-x="391" d="M279 715l114 536h-80l33 156h260l-147 -692h-180z" />
<glyph unicode="&#xba;" horiz-adv-x="837" d="M260 680q0 21 6 45l74 348q12 59 41 85t90 26h395q48 0 69 -17t21 -53q0 -25 -4 -41l-73 -348q-12 -58 -43 -84.5t-91 -26.5h-395q-49 0 -69.5 16t-20.5 50zM473 799q0 -17 21 -17h178q17 0 24.5 6.5t10.5 22.5l38 182q0 2 1.5 6.5t1.5 6.5q0 16 -25 16h-178 q-25 0 -31 -29l-39 -182q-2 -4 -2 -12z" />
<glyph unicode="&#xbb;" horiz-adv-x="1093" d="M96 172l49 223l365 246l-258 256l45 219l342 -356l-51 -246zM643 172l49 223l365 246l-258 256l45 219l342 -356l-51 -246z" />
<glyph unicode="&#xbc;" horiz-adv-x="1349" d="M104 0l1129 1386h164l-1129 -1386h-164zM334 715l115 536h-80l32 156h261l-148 -692h-180zM698 106l29 144l336 422h248l-90 -422h86l-29 -144h-86l-29 -126h-166l29 126h-328zM891 250h164l57 268z" />
<glyph unicode="&#xbd;" horiz-adv-x="1417" d="M104 0l1129 1386h164l-1129 -1386h-164zM354 715l115 536h-80l33 156h260l-147 -692h-181zM756 -20l57 270q15 74 49.5 104.5t106.5 30.5h227q17 0 24.5 6.5t12.5 24.5l16 82q2 6 2 16q0 16 -24 16h-150q-19 0 -28 -6.5t-13 -25.5l-8 -39h-172l21 96q12 60 47 88.5 t100 28.5h319q53 0 77 -19t24 -59q0 -11 -4 -43l-39 -184q-12 -58 -44 -85.5t-91 -27.5h-242q-17 0 -24.5 -8t-12.5 -27l-18 -88h381l-33 -151h-561z" />
<glyph unicode="&#xbe;" horiz-adv-x="1478" d="M264 791q0 16 6 40l25 109h176l-10 -47q-2 -4 -2 -12q0 -19 26 -19h150q32 0 37 31l20 94v8q0 17 -26 17h-129l24 110h129q32 0 35 27l18 86q2 4 2 14q0 17 -26 17h-146q-17 0 -25 -7t-13 -24l-9 -41h-174l21 96q12 60 47 88.5t100 28.5h309q103 0 103 -78q0 -11 -4 -39 l-29 -131q-17 -80 -94 -86q67 -7 67 -57q0 -13 -2 -19l-36 -166q-14 -60 -47 -88t-97 -28h-325q-53 0 -77 18.5t-24 57.5zM274 0l1129 1386h164l-1129 -1386h-164zM827 106l29 144l336 422h248l-90 -422h86l-29 -144h-86l-29 -126h-166l29 126h-328zM1020 250h164l57 268z " />
<glyph unicode="&#xbf;" horiz-adv-x="1284" d="M129 150q0 34 10 92l68 323q26 120 85 177t171 57h246q32 0 44.5 11.5t20.5 45.5l23 98h258l-41 -190q-40 -180 -221 -180h-220q-45 0 -63 -14.5t-27 -59.5l-39 -178q-4 -28 -4 -37q0 -25 15.5 -35t52.5 -10h399q41 0 60 17.5t28 60.5l21 100h280l-41 -192 q-25 -121 -94 -178.5t-196 -57.5h-639q-104 0 -150.5 37t-46.5 113zM819 1077l66 309h262l-66 -309h-262z" />
<glyph unicode="&#xc0;" horiz-adv-x="1302" d="M33 0l721 1386h407l107 -1386h-314l-14 215h-500l-106 -215h-301zM551 444h379l-43 664zM731 1933h232l215 -417h-183z" />
<glyph unicode="&#xc1;" horiz-adv-x="1302" d="M33 0l721 1386h407l107 -1386h-314l-14 215h-500l-106 -215h-301zM551 444h379l-43 664zM764 1516l395 417h232l-445 -417h-182z" />
<glyph unicode="&#xc2;" horiz-adv-x="1302" d="M33 0l721 1386h407l107 -1386h-314l-14 215h-500l-106 -215h-301zM498 1516l446 417h244l256 -417h-205l-197 329l-346 -329h-198zM551 444h379l-43 664z" />
<glyph unicode="&#xc3;" horiz-adv-x="1302" d="M33 0l721 1386h407l107 -1386h-314l-14 215h-500l-106 -215h-301zM551 444h379l-43 664zM561 1628l39 184q49 36 116.5 54t127.5 18q59 0 127 -25.5t132 -51t114 -25.5q138 0 262 82l-41 -185q-47 -36 -114 -53.5t-128 -17.5q-69 0 -137.5 25t-129 50t-108.5 25 q-143 0 -260 -80z" />
<glyph unicode="&#xc4;" horiz-adv-x="1302" d="M33 0l721 1386h407l107 -1386h-314l-14 215h-500l-106 -215h-301zM547 1509l65 312h258l-65 -312h-258zM551 444h379l-43 664zM1135 1509l65 312h258l-65 -312h-258z" />
<glyph unicode="&#xc5;" horiz-adv-x="1302" d="M33 0l721 1386h407l107 -1386h-314l-14 215h-500l-106 -215h-301zM551 444h379l-43 664zM741 1542q0 20 7 51l45 215q14 67 47 96t100 29h240q55 0 78.5 -17.5t23.5 -57.5q0 -23 -6 -50l-45 -215q-14 -67 -48 -96t-102 -29h-239q-54 0 -77.5 17.5t-23.5 56.5zM852 1593 q0 -16 7.5 -21t27.5 -5h188q27 0 36 8t15 37l41 186q2 6 2 19t-8 18.5t-28 5.5h-189q-24 0 -34 -9t-15 -34l-41 -186q-2 -6 -2 -19z" />
<glyph unicode="&#xc6;" horiz-adv-x="2017" d="M33 0l723 1386h1439l-57 -270h-1237l-356 -670h424l121 568h321l-49 -226h510l-47 -221h-510l-62 -291h707l-57 -276h-1029l46 215h-478l-108 -215h-301z" />
<glyph unicode="&#xc7;" horiz-adv-x="1200" d="M143 152q0 42 11 90l190 903q27 126 93 183.5t194 57.5h780l-57 -276h-627q-49 0 -67 -15.5t-27 -62.5l-146 -676q-4 -24 -4 -32q0 -24 15 -33.5t53 -9.5h631l-60 -281h-784q-103 0 -149 37t-46 115zM332 -524l168 401h231l-201 -401h-198z" />
<glyph unicode="&#xc8;" horiz-adv-x="1247" d="M104 0l215 1014h322l-49 -226h510l-47 -221h-510l-62 -291h707l-57 -276h-1029zM340 1116l57 270h1028l-57 -270h-1028zM702 1933h232l215 -417h-182z" />
<glyph unicode="&#xc9;" horiz-adv-x="1247" d="M104 0l215 1014h322l-49 -226h510l-47 -221h-510l-62 -291h707l-57 -276h-1029zM340 1116l57 270h1028l-57 -270h-1028zM735 1516l395 417h232l-444 -417h-183z" />
<glyph unicode="&#xca;" horiz-adv-x="1247" d="M104 0l215 1014h322l-49 -226h510l-47 -221h-510l-62 -291h707l-57 -276h-1029zM340 1116l57 270h1028l-57 -270h-1028zM469 1516l446 417h244l256 -417h-205l-196 329l-346 -329h-199z" />
<glyph unicode="&#xcb;" horiz-adv-x="1247" d="M104 0l215 1014h322l-49 -226h510l-47 -221h-510l-62 -291h707l-57 -276h-1029zM340 1116l57 270h1028l-57 -270h-1028zM520 1509l66 312h258l-66 -312h-258zM1108 1509l66 312h258l-66 -312h-258z" />
<glyph unicode="&#xcc;" horiz-adv-x="552" d="M119 0l293 1386h311l-293 -1386h-311zM358 1933h232l215 -417h-182z" />
<glyph unicode="&#xcd;" horiz-adv-x="552" d="M119 0l293 1386h311l-293 -1386h-311zM389 1516l395 417h232l-445 -417h-182z" />
<glyph unicode="&#xce;" horiz-adv-x="552" d="M119 0l293 1386h311l-293 -1386h-311zM125 1516l446 417h244l256 -417h-205l-196 329l-346 -329h-199z" />
<glyph unicode="&#xcf;" horiz-adv-x="552" d="M119 0l293 1386h311l-293 -1386h-311zM176 1509l66 312h258l-66 -312h-258zM764 1509l65 312h258l-65 -312h-258z" />
<glyph unicode="&#xd0;" d="M111 0l122 582h-79l39 186h79l54 246h307l-53 -246h335l-38 -186h-336l-66 -312h438q53 0 89 34t49 99l125 580q4 32 4 43q0 43 -22.5 66.5t-65.5 23.5h-746l57 270h803q303 0 303 -245q0 -51 -12 -109l-145 -678q-75 -354 -439 -354h-802z" />
<glyph unicode="&#xd1;" horiz-adv-x="1439" d="M111 0l292 1386h293l455 -827l174 827h291l-293 -1386h-207l-524 909l-193 -909h-288zM631 1628l39 184q49 36 116 54t127 18q59 0 127 -25.5t132 -51t114 -25.5q138 0 262 82l-41 -185q-47 -36 -114 -53.5t-127 -17.5q-69 0 -137.5 25t-129 50t-108.5 25 q-143 0 -260 -80z" />
<glyph unicode="&#xd2;" horiz-adv-x="1368" d="M143 150q0 35 13 92l190 903q27 126 92.5 183.5t194.5 57.5h690q102 0 148.5 -37t46.5 -114q0 -29 -11 -90l-190 -903q-27 -126 -93 -184t-194 -58h-690q-103 0 -150 37t-47 113zM481 319q0 -23 14 -33t46 -10h387q48 0 69 16t29 54l148 690q4 24 4 33q0 26 -16.5 36.5 t-55.5 10.5h-387q-40 0 -58.5 -17t-27.5 -63l-148 -690q-4 -20 -4 -27zM764 1933h231l215 -417h-182z" />
<glyph unicode="&#xd3;" horiz-adv-x="1368" d="M143 150q0 35 13 92l190 903q27 126 92.5 183.5t194.5 57.5h690q102 0 148.5 -37t46.5 -114q0 -29 -11 -90l-190 -903q-27 -126 -93 -184t-194 -58h-690q-103 0 -150 37t-47 113zM481 319q0 -23 14 -33t46 -10h387q48 0 69 16t29 54l148 690q4 24 4 33q0 26 -16.5 36.5 t-55.5 10.5h-387q-40 0 -58.5 -17t-27.5 -63l-148 -690q-4 -20 -4 -27zM797 1516l395 417h231l-444 -417h-182z" />
<glyph unicode="&#xd4;" horiz-adv-x="1368" d="M143 150q0 35 13 92l190 903q27 126 92.5 183.5t194.5 57.5h690q102 0 148.5 -37t46.5 -114q0 -29 -11 -90l-190 -903q-27 -126 -93 -184t-194 -58h-690q-103 0 -150 37t-47 113zM481 319q0 -23 14 -33t46 -10h387q48 0 69 16t29 54l148 690q4 24 4 33q0 26 -16.5 36.5 t-55.5 10.5h-387q-40 0 -58.5 -17t-27.5 -63l-148 -690q-4 -20 -4 -27zM530 1516l447 417h244l256 -417h-205l-197 329l-346 -329h-199z" />
<glyph unicode="&#xd5;" horiz-adv-x="1368" d="M143 150q0 35 13 92l190 903q27 126 92.5 183.5t194.5 57.5h690q102 0 148.5 -37t46.5 -114q0 -29 -11 -90l-190 -903q-27 -126 -93 -184t-194 -58h-690q-103 0 -150 37t-47 113zM481 319q0 -23 14 -33t46 -10h387q48 0 69 16t29 54l148 690q4 24 4 33q0 26 -16.5 36.5 t-55.5 10.5h-387q-40 0 -58.5 -17t-27.5 -63l-148 -690q-4 -20 -4 -27zM594 1628l39 184q49 36 116.5 54t127.5 18q59 0 127 -25.5t131.5 -51t113.5 -25.5q138 0 262 82l-41 -185q-47 -36 -114 -53.5t-127 -17.5q-69 0 -137.5 25t-129 50t-108.5 25q-143 0 -260 -80z" />
<glyph unicode="&#xd6;" horiz-adv-x="1368" d="M143 150q0 35 13 92l190 903q27 126 92.5 183.5t194.5 57.5h690q102 0 148.5 -37t46.5 -114q0 -29 -11 -90l-190 -903q-27 -126 -93 -184t-194 -58h-690q-103 0 -150 37t-47 113zM481 319q0 -23 14 -33t46 -10h387q48 0 69 16t29 54l148 690q4 24 4 33q0 26 -16.5 36.5 t-55.5 10.5h-387q-40 0 -58.5 -17t-27.5 -63l-148 -690q-4 -20 -4 -27zM580 1509l65 312h258l-65 -312h-258zM1167 1509l66 312h258l-66 -312h-258z" />
<glyph unicode="&#xd7;" horiz-adv-x="1239" d="M250 406l375 309l-242 309l176 145l242 -309l373 309l114 -145l-373 -309l242 -312l-176 -143l-242 311l-377 -311z" />
<glyph unicode="&#xd8;" horiz-adv-x="1368" d="M72 -145l137 168q-66 32 -66 122q0 37 13 97l190 903q27 126 92.5 183.5t194.5 57.5h676l121 148h159l-139 -170q68 -36 68 -129q0 -29 -11 -90l-190 -903q-27 -126 -93 -184t-194 -58h-678l-119 -145h-161zM492 375l598 741h-371q-40 0 -58.5 -17t-27.5 -63zM573 276 h355q48 0 69 16t29 54l143 668z" />
<glyph unicode="&#xd9;" d="M150 152q0 49 10 90l241 1144h312l-219 -1036q-7 -28 -7 -37q0 -22 14 -29.5t48 -7.5h409q42 0 61 15t28 59l219 1036h299l-242 -1144q-27 -126 -93 -184t-194 -58h-690q-104 0 -150 37t-46 115zM770 1933h231l216 -417h-183z" />
<glyph unicode="&#xda;" d="M150 152q0 49 10 90l241 1144h312l-219 -1036q-7 -28 -7 -37q0 -22 14 -29.5t48 -7.5h409q42 0 61 15t28 59l219 1036h299l-242 -1144q-27 -126 -93 -184t-194 -58h-690q-104 0 -150 37t-46 115zM803 1516l395 417h232l-445 -417h-182z" />
<glyph unicode="&#xdb;" d="M150 152q0 49 10 90l241 1144h312l-219 -1036q-7 -28 -7 -37q0 -22 14 -29.5t48 -7.5h409q42 0 61 15t28 59l219 1036h299l-242 -1144q-27 -126 -93 -184t-194 -58h-690q-104 0 -150 37t-46 115zM537 1516l446 417h244l256 -417h-205l-197 329l-346 -329h-198z" />
<glyph unicode="&#xdc;" d="M150 152q0 49 10 90l241 1144h312l-219 -1036q-7 -28 -7 -37q0 -22 14 -29.5t48 -7.5h409q42 0 61 15t28 59l219 1036h299l-242 -1144q-27 -126 -93 -184t-194 -58h-690q-104 0 -150 37t-46 115zM588 1509l65 312h258l-65 -312h-258zM1176 1509l65 312h258l-65 -312h-258 z" />
<glyph unicode="&#xdd;" horiz-adv-x="1263" d="M319 1386h326l170 -546l402 546h311l-621 -815l-121 -571h-311l121 571zM743 1516l396 417h231l-444 -417h-183z" />
<glyph unicode="&#xde;" horiz-adv-x="1361" d="M113 0l293 1386h311l-197 -929h471q44 0 68 20t33 64l75 358q4 24 4 33q0 55 -67 55h-369l49 234h519q103 0 148.5 -37t45.5 -115q0 -32 -10 -90l-115 -541q-27 -126 -92.5 -183.5t-194.5 -57.5h-620l-41 -197h-311z" />
<glyph unicode="&#xdf;" horiz-adv-x="1495" d="M106 0l269 1268q22 107 75.5 154.5t161.5 47.5h449q87 0 126.5 -30t39.5 -94q0 -30 -10 -78l-78 -367q-2 -8 -2 -18q0 -14 7 -18.5t27 -4.5h244q135 0 135 -104q0 -13 -4 -41l-114 -535q-21 -95 -73 -137.5t-157 -42.5h-586l50 231h426q30 0 43.5 12.5t19.5 43.5l70 327 q2 6 2 19q0 24 -37 24h-207q-129 0 -129 97q0 22 6 49l84 395q2 8 2 21q0 15 -8.5 21.5t-30.5 6.5h-207q-26 0 -36.5 -10.5t-16.5 -38.5l-254 -1198h-287z" />
<glyph unicode="&#xe0;" horiz-adv-x="1290" d="M135 119q0 28 10 76l52 245q25 116 69.5 157.5t143.5 41.5h526l-37 -176h-377q-29 0 -41 -10.5t-18 -42.5l-23 -109q-4 -24 -4 -29q0 -15 8.5 -20.5t30.5 -5.5h479l109 508q2 8 2 22q0 35 -49 35h-703l47 225h848q88 0 126 -29.5t38 -93.5q0 -27 -10 -79l-176 -834h-903 q-77 0 -112.5 29t-35.5 90zM672 1583h231l215 -418h-182z" />
<glyph unicode="&#xe1;" horiz-adv-x="1290" d="M135 119q0 28 10 76l52 245q25 116 69.5 157.5t143.5 41.5h526l-37 -176h-377q-29 0 -41 -10.5t-18 -42.5l-23 -109q-4 -24 -4 -29q0 -15 8.5 -20.5t30.5 -5.5h479l109 508q2 8 2 22q0 35 -49 35h-703l47 225h848q88 0 126 -29.5t38 -93.5q0 -27 -10 -79l-176 -834h-903 q-77 0 -112.5 29t-35.5 90zM684 1165l395 418h232l-445 -418h-182z" />
<glyph unicode="&#xe2;" horiz-adv-x="1290" d="M135 119q0 28 10 76l52 245q25 116 69.5 157.5t143.5 41.5h526l-37 -176h-377q-29 0 -41 -10.5t-18 -42.5l-23 -109q-4 -24 -4 -29q0 -15 8.5 -20.5t30.5 -5.5h479l109 508q2 8 2 22q0 35 -49 35h-703l47 225h848q88 0 126 -29.5t38 -93.5q0 -27 -10 -79l-176 -834h-903 q-77 0 -112.5 29t-35.5 90zM428 1165l446 418h244l256 -418h-205l-196 330l-346 -330h-199z" />
<glyph unicode="&#xe3;" horiz-adv-x="1290" d="M135 119q0 28 10 76l52 245q25 116 69.5 157.5t143.5 41.5h526l-37 -176h-377q-29 0 -41 -10.5t-18 -42.5l-23 -109q-4 -24 -4 -29q0 -15 8.5 -20.5t30.5 -5.5h479l109 508q2 8 2 22q0 35 -49 35h-703l47 225h848q88 0 126 -29.5t38 -93.5q0 -27 -10 -79l-176 -834h-903 q-77 0 -112.5 29t-35.5 90zM496 1278l39 184q49 36 116 54t127 18q59 0 127 -25.5t132 -51t114 -25.5q140 0 262 81l-41 -184q-48 -36 -115 -54t-127 -18q-69 0 -137.5 25.5t-128.5 50.5t-108 25q-143 0 -260 -80z" />
<glyph unicode="&#xe4;" horiz-adv-x="1290" d="M135 119q0 28 10 76l52 245q25 116 69.5 157.5t143.5 41.5h526l-37 -176h-377q-29 0 -41 -10.5t-18 -42.5l-23 -109q-4 -24 -4 -29q0 -15 8.5 -20.5t30.5 -5.5h479l109 508q2 8 2 22q0 35 -49 35h-703l47 225h848q88 0 126 -29.5t38 -93.5q0 -27 -10 -79l-176 -834h-903 q-77 0 -112.5 29t-35.5 90zM467 1159l65 311h259l-66 -311h-258zM1055 1159l65 311h258l-65 -311h-258z" />
<glyph unicode="&#xe5;" horiz-adv-x="1290" d="M135 119q0 28 10 76l52 245q25 116 69.5 157.5t143.5 41.5h526l-37 -176h-377q-29 0 -41 -10.5t-18 -42.5l-23 -109q-4 -24 -4 -29q0 -15 8.5 -20.5t30.5 -5.5h479l109 508q2 8 2 22q0 35 -49 35h-703l47 225h848q88 0 126 -29.5t38 -93.5q0 -27 -10 -79l-176 -834h-903 q-77 0 -112.5 29t-35.5 90zM662 1192q0 24 6 51l45 215q14 67 47 96t100 29h240q55 0 78.5 -18t23.5 -58q0 -22 -6 -49l-45 -215q-14 -67 -48 -96t-102 -29h-239q-53 0 -76.5 17.5t-23.5 56.5zM772 1243q0 -16 7.5 -21t27.5 -5h188q27 0 36.5 8.5t15.5 36.5l40 186q3 9 3 18 q0 25 -37 25h-189q-24 0 -34 -9t-15 -34l-41 -186q-2 -6 -2 -19z" />
<glyph unicode="&#xe6;" horiz-adv-x="2017" d="M137 119q0 28 10 76l52 245q25 116 70 157.5t145 41.5h483l-37 -176h-334q-31 0 -43 -10.5t-18 -42.5l-25 -119q-4 -24 -4 -29q0 -26 41 -26h436l123 575h-721l47 225h1592q77 0 110 -28.5t33 -89.5q0 -37 -8 -76l-86 -408h-662l35 172h389l33 148q2 10 2 26q0 17 -9 24 t-34 7h-438l-123 -575h725l-49 -236h-1585q-79 0 -114.5 29t-35.5 90z" />
<glyph unicode="&#xe7;" horiz-adv-x="1110" d="M133 123q0 28 10 80l133 631q22 107 76 154.5t162 47.5h731l-53 -252h-584q-34 0 -46.5 -10.5t-20.5 -44.5l-88 -414q-4 -20 -4 -26q0 -17 10.5 -24t36.5 -7h583l-53 -258h-731q-85 0 -123.5 29.5t-38.5 93.5zM287 -524l168 401h231l-201 -401h-198z" />
<glyph unicode="&#xe8;" horiz-adv-x="1265" d="M123 123q0 28 10 80l133 631q22 107 76 154.5t164 47.5h700q77 0 111.5 -28.5t34.5 -89.5q0 -32 -9 -76l-86 -408h-690l35 172h418l31 139q2 10 2 27q0 15 -9.5 22t-33.5 7h-412q-34 0 -47 -11.5t-21 -46.5l-96 -446q-4 -24 -4 -31q0 -18 10 -24t37 -6h699l-50 -236h-839 q-87 0 -125.5 29.5t-38.5 93.5zM639 1583h231l215 -418h-182z" />
<glyph unicode="&#xe9;" horiz-adv-x="1265" d="M123 123q0 28 10 80l133 631q22 107 76 154.5t164 47.5h700q77 0 111.5 -28.5t34.5 -89.5q0 -32 -9 -76l-86 -408h-690l35 172h418l31 139q2 10 2 27q0 15 -9.5 22t-33.5 7h-412q-34 0 -47 -11.5t-21 -46.5l-96 -446q-4 -24 -4 -31q0 -18 10 -24t37 -6h699l-50 -236h-839 q-87 0 -125.5 29.5t-38.5 93.5zM672 1165l395 418h231l-444 -418h-182z" />
<glyph unicode="&#xea;" horiz-adv-x="1265" d="M123 123q0 28 10 80l133 631q22 107 76 154.5t164 47.5h700q77 0 111.5 -28.5t34.5 -89.5q0 -32 -9 -76l-86 -408h-690l35 172h418l31 139q2 10 2 27q0 15 -9.5 22t-33.5 7h-412q-34 0 -47 -11.5t-21 -46.5l-96 -446q-4 -24 -4 -31q0 -18 10 -24t37 -6h699l-50 -236h-839 q-87 0 -125.5 29.5t-38.5 93.5zM406 1165l446 418h244l256 -418h-205l-197 330l-346 -330h-198z" />
<glyph unicode="&#xeb;" horiz-adv-x="1265" d="M123 123q0 28 10 80l133 631q22 107 76 154.5t164 47.5h700q77 0 111.5 -28.5t34.5 -89.5q0 -32 -9 -76l-86 -408h-690l35 172h418l31 139q2 10 2 27q0 15 -9.5 22t-33.5 7h-412q-34 0 -47 -11.5t-21 -46.5l-96 -446q-4 -24 -4 -31q0 -18 10 -24t37 -6h699l-50 -236h-839 q-87 0 -125.5 29.5t-38.5 93.5zM455 1159l65 311h258l-65 -311h-258zM1042 1159l66 311h258l-66 -311h-258z" />
<glyph unicode="&#xec;" horiz-adv-x="593" d="M190 0l220 1036h286l-219 -1036h-287zM342 1583h231l215 -418h-182z" />
<glyph unicode="&#xed;" horiz-adv-x="598" d="M115 0l219 1036h287l-220 -1036h-286zM299 1165l395 418h232l-445 -418h-182z" />
<glyph unicode="&#xee;" horiz-adv-x="825" d="M188 1165l447 418h244l256 -418h-205l-197 330l-346 -330h-199zM270 0l219 1036h287l-219 -1036h-287z" />
<glyph unicode="&#xef;" horiz-adv-x="737" d="M195 1159l65 311h258l-65 -311h-258zM227 0l219 1036h287l-219 -1036h-287zM782 1159l66 311h258l-66 -311h-258z" />
<glyph unicode="&#xf0;" horiz-adv-x="1247" d="M131 123q0 28 10 80l105 497q23 107 81 155t158 48h447l-51 -244h-293q-62 0 -76 -67l-57 -268q-4 -24 -4 -31q0 -39 49 -39h291q33 0 50 16t25 52l131 616q13 60 13 88q0 35 -23 86l-31 59l-413 -135l28 138l330 110l-94 186h317l50 -96l282 96l-31 -141l-194 -65 l43 -78q28 -55 31 -113q0 -32 -25 -164l-150 -706q-24 -108 -78.5 -155.5t-162.5 -47.5h-594q-87 0 -125.5 29.5t-38.5 93.5z" />
<glyph unicode="&#xf1;" horiz-adv-x="1329" d="M104 0l220 1036h276l-25 -112q73 112 203 112h465q84 0 122 -29t38 -96q0 -38 -8 -77l-176 -834h-285l153 731q1 4 2 9.5t2 9t1 6.5q0 18 -12.5 25t-39.5 7h-428q-31 0 -45.5 -12t-21.5 -45l-154 -731h-287zM522 1278l39 184q49 36 116.5 54t127.5 18q59 0 127 -25.5 t132 -51t114 -25.5q140 0 262 81l-41 -184q-48 -36 -115 -54t-127 -18q-69 0 -137.5 25.5t-129 50.5t-108.5 25q-143 0 -260 -80z" />
<glyph unicode="&#xf2;" horiz-adv-x="1296" d="M133 123q0 28 10 80l133 631q22 107 76 154.5t162 47.5h705q88 0 125.5 -29.5t37.5 -93.5q0 -27 -10 -79l-133 -631q-24 -108 -77.5 -155.5t-162.5 -47.5h-704q-85 0 -123.5 29.5t-38.5 93.5zM449 283q0 -29 45 -29h405q37 0 53.5 12t22.5 43l88 422q4 20 4 25 q0 18 -12.5 25t-42.5 7h-406q-32 0 -45.5 -11.5t-19.5 -45.5l-88 -422q-4 -20 -4 -26zM653 1583h232l215 -418h-182z" />
<glyph unicode="&#xf3;" horiz-adv-x="1296" d="M133 123q0 28 10 80l133 631q22 107 76 154.5t162 47.5h705q88 0 125.5 -29.5t37.5 -93.5q0 -27 -10 -79l-133 -631q-24 -108 -77.5 -155.5t-162.5 -47.5h-704q-85 0 -123.5 29.5t-38.5 93.5zM449 283q0 -29 45 -29h405q37 0 53.5 12t22.5 43l88 422q4 20 4 25 q0 18 -12.5 25t-42.5 7h-406q-32 0 -45.5 -11.5t-19.5 -45.5l-88 -422q-4 -20 -4 -26zM686 1165l395 418h232l-445 -418h-182z" />
<glyph unicode="&#xf4;" horiz-adv-x="1296" d="M133 123q0 28 10 80l133 631q22 107 76 154.5t162 47.5h705q88 0 125.5 -29.5t37.5 -93.5q0 -27 -10 -79l-133 -631q-24 -108 -77.5 -155.5t-162.5 -47.5h-704q-85 0 -123.5 29.5t-38.5 93.5zM420 1165l446 418h244l256 -418h-205l-196 330l-347 -330h-198zM449 283 q0 -29 45 -29h405q37 0 53.5 12t22.5 43l88 422q4 20 4 25q0 18 -12.5 25t-42.5 7h-406q-32 0 -45.5 -11.5t-19.5 -45.5l-88 -422q-4 -20 -4 -26z" />
<glyph unicode="&#xf5;" horiz-adv-x="1296" d="M133 123q0 28 10 80l133 631q22 107 76 154.5t162 47.5h705q88 0 125.5 -29.5t37.5 -93.5q0 -27 -10 -79l-133 -631q-24 -108 -77.5 -155.5t-162.5 -47.5h-704q-85 0 -123.5 29.5t-38.5 93.5zM449 283q0 -29 45 -29h405q37 0 53.5 12t22.5 43l88 422q4 20 4 25 q0 18 -12.5 25t-42.5 7h-406q-32 0 -45.5 -11.5t-19.5 -45.5l-88 -422q-4 -20 -4 -26zM485 1278l39 184q49 36 116.5 54t127.5 18q59 0 127 -25.5t132 -51t114 -25.5q140 0 262 81l-41 -184q-48 -36 -115 -54t-127 -18q-69 0 -137.5 25.5t-129 50.5t-108.5 25 q-143 0 -260 -80z" />
<glyph unicode="&#xf6;" horiz-adv-x="1296" d="M133 123q0 28 10 80l133 631q22 107 76 154.5t162 47.5h705q88 0 125.5 -29.5t37.5 -93.5q0 -27 -10 -79l-133 -631q-24 -108 -77.5 -155.5t-162.5 -47.5h-704q-85 0 -123.5 29.5t-38.5 93.5zM449 283q0 -29 45 -29h405q37 0 53.5 12t22.5 43l88 422q4 20 4 25 q0 18 -12.5 25t-42.5 7h-406q-32 0 -45.5 -11.5t-19.5 -45.5l-88 -422q-4 -20 -4 -26zM471 1159l66 311h258l-66 -311h-258zM1059 1159l65 311h258l-65 -311h-258z" />
<glyph unicode="&#xf7;" horiz-adv-x="1296" d="M238 612l43 205h1077l-43 -205h-1077zM545 139l65 310h262l-65 -310h-262zM723 981l65 309h263l-66 -309h-262z" />
<glyph unicode="&#xf8;" horiz-adv-x="1296" d="M68 -145l145 155q-80 23 -80 113q0 28 10 80l133 631q22 107 76 154.5t162 47.5h641l123 131h164l-133 -143q73 -26 73 -113q0 -29 -10 -77l-133 -631q-24 -108 -77.5 -155.5t-162.5 -47.5h-632l-136 -145h-163zM449 285q0 -7 4 -15l475 518h-322q-32 0 -45.5 -11.5 t-19.5 -45.5l-88 -422q-4 -20 -4 -24zM600 254h299q37 0 53.5 12t22.5 43l88 422q2 6 2 21v6z" />
<glyph unicode="&#xf9;" horiz-adv-x="1310" d="M137 125q0 30 10 78l177 833h286l-155 -731q-4 -20 -4 -26q0 -18 11 -25.5t38 -7.5h411q32 0 47.5 12.5t22.5 46.5l156 731h286l-219 -1036h-276l22 111q-38 -58 -86 -84.5t-114 -26.5h-451q-83 0 -122.5 29.5t-39.5 95.5zM662 1583h231l215 -418h-182z" />
<glyph unicode="&#xfa;" horiz-adv-x="1310" d="M137 125q0 30 10 78l177 833h286l-155 -731q-4 -20 -4 -26q0 -18 11 -25.5t38 -7.5h411q32 0 47.5 12.5t22.5 46.5l156 731h286l-219 -1036h-276l22 111q-38 -58 -86 -84.5t-114 -26.5h-451q-83 0 -122.5 29.5t-39.5 95.5zM694 1165l396 418h231l-444 -418h-183z" />
<glyph unicode="&#xfb;" horiz-adv-x="1310" d="M137 125q0 30 10 78l177 833h286l-155 -731q-4 -20 -4 -26q0 -18 11 -25.5t38 -7.5h411q32 0 47.5 12.5t22.5 46.5l156 731h286l-219 -1036h-276l22 111q-38 -58 -86 -84.5t-114 -26.5h-451q-83 0 -122.5 29.5t-39.5 95.5zM428 1165l446 418h244l256 -418h-205l-196 330 l-346 -330h-199z" />
<glyph unicode="&#xfc;" horiz-adv-x="1310" d="M137 125q0 30 10 78l177 833h286l-155 -731q-4 -20 -4 -26q0 -18 11 -25.5t38 -7.5h411q32 0 47.5 12.5t22.5 46.5l156 731h286l-219 -1036h-276l22 111q-38 -58 -86 -84.5t-114 -26.5h-451q-83 0 -122.5 29.5t-39.5 95.5zM477 1159l66 311h258l-66 -311h-258zM1065 1159 l65 311h259l-66 -311h-258z" />
<glyph unicode="&#xfd;" horiz-adv-x="1249" d="M31 -434l53 248h688q35 0 48.5 12t21.5 47l28 127h-589q-85 0 -123.5 29.5t-38.5 93.5q0 28 10 80l176 833h287l-158 -743q-4 -20 -4 -27q0 -33 49 -33h441l170 803h288l-270 -1267q-24 -107 -78 -155t-164 -48h-835zM664 1165l395 418h231l-444 -418h-182z" />
<glyph unicode="&#xfe;" horiz-adv-x="1286" d="M16 -436l406 1906h285l-258 -1216h438q64 0 78 68l84 397q2 10 2 26q0 43 -52 43h-335l53 248h489q160 0 160 -137q0 -15 -8 -65l-133 -631q-24 -107 -77.5 -155t-160.5 -48h-592l-94 -436h-285z" />
<glyph unicode="&#xff;" horiz-adv-x="1249" d="M31 -434l53 248h688q35 0 48.5 12t21.5 47l28 127h-589q-85 0 -123.5 29.5t-38.5 93.5q0 28 10 80l176 833h287l-158 -743q-4 -20 -4 -27q0 -33 49 -33h441l170 803h288l-270 -1267q-24 -107 -78 -155t-164 -48h-835zM446 1159l66 311h258l-65 -311h-259zM1034 1159 l66 311h258l-66 -311h-258z" />
<glyph unicode="&#x100;" horiz-adv-x="1302" d="M33 0l721 1386h407l107 -1386h-314l-14 215h-500l-106 -215h-301zM526 1649l39 182h944l-39 -182h-944zM551 444h379l-43 664z" />
<glyph unicode="&#x101;" horiz-adv-x="1290" d="M135 119q0 28 10 76l52 245q25 116 69.5 157.5t143.5 41.5h526l-37 -176h-377q-29 0 -41 -10.5t-18 -42.5l-23 -109q-4 -24 -4 -29q0 -15 8.5 -20.5t30.5 -5.5h479l109 508q2 8 2 22q0 35 -49 35h-703l47 225h848q88 0 126 -29.5t38 -93.5q0 -27 -10 -79l-176 -834h-903 q-77 0 -112.5 29t-35.5 90zM457 1298l39 183h944l-39 -183h-944z" />
<glyph unicode="&#x102;" horiz-adv-x="1302" d="M33 0l721 1386h407l107 -1386h-314l-14 215h-500l-106 -215h-301zM551 444h379l-43 664zM618 1772q0 58 21 161h127q-14 -72 -14 -110q0 -89 56 -133.5t191 -44.5q87 0 149.5 19t102.5 58.5t63.5 89t39.5 121.5h127q-17 -81 -40 -141.5t-62.5 -116t-93 -90.5t-133 -55.5 t-181.5 -20.5q-192 0 -272.5 67t-80.5 196z" />
<glyph unicode="&#x103;" horiz-adv-x="1290" d="M135 119q0 28 10 76l52 245q25 116 69.5 157.5t143.5 41.5h526l-37 -176h-377q-29 0 -41 -10.5t-18 -42.5l-23 -109q-4 -24 -4 -29q0 -15 8.5 -20.5t30.5 -5.5h479l109 508q2 8 2 22q0 35 -49 35h-703l47 225h848q88 0 126 -29.5t38 -93.5q0 -27 -10 -79l-176 -834h-903 q-77 0 -112.5 29t-35.5 90zM553 1421q0 64 20 162h127q-14 -72 -14 -110q0 -89 56.5 -134t191.5 -45q87 0 149.5 19t102 59t63 89.5t39.5 121.5h127q-17 -81 -40 -141.5t-62.5 -116t-93 -90.5t-133 -55.5t-181.5 -20.5q-192 0 -272 66.5t-80 195.5z" />
<glyph unicode="&#x104;" horiz-adv-x="1302" d="M33 0l721 1386h407l107 -1386l-279 -143q-24 -12 -32.5 -24t-14.5 -42l-14 -63q-2 -6 -2 -19q0 -24 30 -24h244l-45 -209h-364q-97 0 -97 88q0 21 6 45l23 104q15 72 41 107.5t90 66.5l233 113h-133l-14 215h-500l-106 -215h-301zM551 444h379l-43 664z" />
<glyph unicode="&#x105;" horiz-adv-x="1290" d="M135 119q0 28 10 76l52 245q25 116 69.5 157.5t143.5 41.5h526l-37 -176h-377q-29 0 -41 -10.5t-18 -42.5l-23 -109q-4 -24 -4 -29q0 -15 8.5 -20.5t30.5 -5.5h479l109 508q2 8 2 22q0 35 -49 35h-703l47 225h848q88 0 126 -29.5t38 -93.5q0 -27 -10 -79l-176 -834 l-279 -143q-24 -12 -32.5 -24t-14.5 -42l-14 -63q-2 -6 -2 -19q0 -24 30 -24h244l-45 -209h-364q-97 0 -97 88q0 21 6 45l23 104q15 72 41 107.5t90 66.5l234 113h-723q-77 0 -112.5 29t-35.5 90z" />
<glyph unicode="&#x106;" horiz-adv-x="1200" d="M143 152q0 42 11 90l190 903q27 126 93 183.5t194 57.5h780l-57 -276h-627q-49 0 -67 -15.5t-27 -62.5l-146 -676q-4 -24 -4 -32q0 -24 15 -33.5t53 -9.5h631l-60 -281h-784q-103 0 -149 37t-46 115zM713 1516l395 417h231l-444 -417h-182z" />
<glyph unicode="&#x107;" horiz-adv-x="1110" d="M133 123q0 28 10 80l133 631q22 107 76 154.5t162 47.5h731l-53 -252h-584q-34 0 -46.5 -10.5t-20.5 -44.5l-88 -414q-4 -20 -4 -26q0 -17 10.5 -24t36.5 -7h583l-53 -258h-731q-85 0 -123.5 29.5t-38.5 93.5zM594 1165l395 418h232l-445 -418h-182z" />
<glyph unicode="&#x10a;" horiz-adv-x="1200" d="M143 152q0 42 11 90l190 903q27 126 93 183.5t194 57.5h780l-57 -276h-627q-49 0 -67 -15.5t-27 -62.5l-146 -676q-4 -24 -4 -32q0 -24 15 -33.5t53 -9.5h631l-60 -281h-784q-103 0 -149 37t-46 115zM823 1509l66 312h258l-66 -312h-258z" />
<glyph unicode="&#x10b;" horiz-adv-x="1110" d="M133 123q0 28 10 80l133 631q22 107 76 154.5t162 47.5h731l-53 -252h-584q-34 0 -46.5 -10.5t-20.5 -44.5l-88 -414q-4 -20 -4 -26q0 -17 10.5 -24t36.5 -7h583l-53 -258h-731q-85 0 -123.5 29.5t-38.5 93.5zM702 1159l66 311h258l-65 -311h-259z" />
<glyph unicode="&#x10c;" horiz-adv-x="1200" d="M143 152q0 42 11 90l190 903q27 126 93 183.5t194 57.5h780l-57 -276h-627q-49 0 -67 -15.5t-27 -62.5l-146 -676q-4 -24 -4 -32q0 -24 15 -33.5t53 -9.5h631l-60 -281h-784q-103 0 -149 37t-46 115zM578 1933h204l197 -329l344 329h201l-449 -417h-244 q-30 47 -126.5 208.5t-126.5 208.5z" />
<glyph unicode="&#x10d;" horiz-adv-x="1110" d="M133 123q0 28 10 80l133 631q22 107 76 154.5t162 47.5h731l-53 -252h-584q-34 0 -46.5 -10.5t-20.5 -44.5l-88 -414q-4 -20 -4 -26q0 -17 10.5 -24t36.5 -7h583l-53 -258h-731q-85 0 -123.5 29.5t-38.5 93.5zM438 1583h205l197 -330l344 330h200l-448 -418h-244 q-31 47 -127.5 209t-126.5 209z" />
<glyph unicode="&#x10e;" horiz-adv-x="1384" d="M115 0l215 1012h307l-158 -742h436q53 0 89 34t49 99l123 578q6 24 6 47q0 86 -88 86h-744l58 272h800q303 0 303 -245q0 -51 -12 -109l-145 -678q-75 -354 -439 -354h-800zM598 1933h205l196 -329l344 329h201l-448 -417h-244q-31 47 -127 208.5t-127 208.5z" />
<glyph unicode="&#x10f;" horiz-adv-x="1560" d="M133 123q0 28 10 80l133 631q42 202 238 202h490l-54 -248h-342q-33 0 -46.5 -11t-20.5 -46l-88 -420q-4 -20 -4 -26q0 -17 10.5 -24t36.5 -7h444l258 1216h289l-311 -1470h-881q-85 0 -123.5 29.5t-38.5 93.5zM1413 961l197 509h262l-230 -509h-229z" />
<glyph unicode="&#x110;" d="M111 0l122 582h-79l39 186h79l54 246h307l-53 -246h335l-38 -186h-336l-66 -312h438q53 0 89 34t49 99l125 580q4 32 4 43q0 43 -22.5 66.5t-65.5 23.5h-746l57 270h803q303 0 303 -245q0 -51 -12 -109l-145 -678q-75 -354 -439 -354h-802z" />
<glyph unicode="&#x111;" horiz-adv-x="1286" d="M133 123q0 28 10 80l133 631q42 202 238 202h490l-54 -248h-342q-33 0 -46.5 -11t-20.5 -46l-88 -420q-4 -20 -4 -26q0 -17 10.5 -24t36.5 -7h444l190 901h-552l38 182h553l29 133h289l-29 -133h103l-39 -182h-103l-243 -1155h-881q-85 0 -123.5 29.5t-38.5 93.5z" />
<glyph unicode="&#x112;" horiz-adv-x="1247" d="M104 0l215 1014h322l-49 -226h510l-47 -221h-510l-62 -291h707l-57 -276h-1029zM340 1116l57 270h1028l-57 -270h-1028zM500 1649l39 182h944l-39 -182h-944z" />
<glyph unicode="&#x113;" horiz-adv-x="1265" d="M123 123q0 28 10 80l133 631q22 107 76 154.5t164 47.5h700q77 0 111.5 -28.5t34.5 -89.5q0 -32 -9 -76l-86 -408h-690l35 172h418l31 139q2 10 2 27q0 15 -9.5 22t-33.5 7h-412q-34 0 -47 -11.5t-21 -46.5l-96 -446q-4 -24 -4 -31q0 -18 10 -24t37 -6h699l-50 -236h-839 q-87 0 -125.5 29.5t-38.5 93.5zM434 1298l39 183h944l-39 -183h-944z" />
<glyph unicode="&#x114;" horiz-adv-x="1247" d="M104 0l215 1014h322l-49 -226h510l-47 -221h-510l-62 -291h707l-57 -276h-1029zM340 1116l57 270h1028l-57 -270h-1028zM592 1772q0 63 20 161h127q-14 -72 -14 -110q0 -89 56.5 -133.5t191.5 -44.5q87 0 149.5 19t102 58.5t63 89t39.5 121.5h127q-17 -81 -40 -141.5 t-62.5 -116t-93 -90.5t-133 -55.5t-181.5 -20.5q-192 0 -272 67t-80 196z" />
<glyph unicode="&#x115;" horiz-adv-x="1265" d="M123 123q0 28 10 80l133 631q22 107 76 154.5t164 47.5h700q77 0 111.5 -28.5t34.5 -89.5q0 -32 -9 -76l-86 -408h-690l35 172h418l31 139q2 10 2 27q0 15 -9.5 22t-33.5 7h-412q-34 0 -47 -11.5t-21 -46.5l-96 -446q-4 -24 -4 -31q0 -18 10 -24t37 -6h699l-50 -236h-839 q-87 0 -125.5 29.5t-38.5 93.5zM526 1421q0 59 21 162h127q-15 -77 -15 -110q0 -89 56.5 -134t191.5 -45q87 0 149.5 19t102.5 58.5t63.5 89.5t39.5 122h127q-17 -81 -40 -141.5t-62.5 -116t-93 -90.5t-133 -55.5t-181.5 -20.5q-192 0 -272.5 66.5t-80.5 195.5z" />
<glyph unicode="&#x116;" horiz-adv-x="1247" d="M104 0l215 1014h322l-49 -226h510l-47 -221h-510l-62 -291h707l-57 -276h-1029zM340 1116l57 270h1028l-57 -270h-1028zM813 1509l66 312h258l-66 -312h-258z" />
<glyph unicode="&#x117;" horiz-adv-x="1265" d="M123 123q0 28 10 80l133 631q22 107 76 154.5t164 47.5h700q77 0 111.5 -28.5t34.5 -89.5q0 -32 -9 -76l-86 -408h-690l35 172h418l31 139q2 10 2 27q0 15 -9.5 22t-33.5 7h-412q-34 0 -47 -11.5t-21 -46.5l-96 -446q-4 -24 -4 -31q0 -18 10 -24t37 -6h699l-50 -236h-839 q-87 0 -125.5 29.5t-38.5 93.5zM750 1159l65 311h258l-65 -311h-258z" />
<glyph unicode="&#x118;" horiz-adv-x="1247" d="M104 0l215 1014h322l-49 -226h510l-47 -221h-510l-62 -291h707l-57 -276l-279 -143q-24 -12 -32.5 -24t-14.5 -42l-14 -63q-2 -6 -2 -19q0 -24 30 -24h244l-45 -209h-365q-96 0 -96 88q0 21 6 45l23 104q15 72 41 107.5t90 66.5l233 113h-848zM340 1116l57 270h1028 l-57 -270h-1028z" />
<glyph unicode="&#x119;" horiz-adv-x="1265" d="M123 123q0 28 10 80l133 631q22 107 76 154.5t164 47.5h700q77 0 111.5 -28.5t34.5 -89.5q0 -32 -9 -76l-86 -408h-690l35 172h418l31 139q2 10 2 27q0 15 -9.5 22t-33.5 7h-412q-34 0 -47 -11.5t-21 -46.5l-96 -446q-4 -24 -4 -31q0 -18 10 -24t37 -6h699l-50 -236 l-278 -143q-24 -12 -32.5 -24t-14.5 -42l-15 -63q-2 -6 -2 -19q0 -24 31 -24h244l-45 -209h-365q-96 0 -96 88q0 21 6 45l23 104q15 72 41 107.5t90 66.5l233 113h-659q-87 0 -125.5 29.5t-38.5 93.5z" />
<glyph unicode="&#x11a;" horiz-adv-x="1247" d="M104 0l215 1014h322l-49 -226h510l-47 -221h-510l-62 -291h707l-57 -276h-1029zM340 1116l57 270h1028l-57 -270h-1028zM559 1933h205l197 -329l344 329h200l-448 -417h-244q-30 47 -126.5 208.5t-127.5 208.5z" />
<glyph unicode="&#x11b;" horiz-adv-x="1265" d="M123 123q0 28 10 80l133 631q22 107 76 154.5t164 47.5h700q77 0 111.5 -28.5t34.5 -89.5q0 -32 -9 -76l-86 -408h-690l35 172h418l31 139q2 10 2 27q0 15 -9.5 22t-33.5 7h-412q-34 0 -47 -11.5t-21 -46.5l-96 -446q-4 -24 -4 -31q0 -18 10 -24t37 -6h699l-50 -236h-839 q-87 0 -125.5 29.5t-38.5 93.5zM496 1583h204l197 -330l344 330h201l-449 -418h-243q-30 47 -126.5 209t-127.5 209z" />
<glyph unicode="&#x11e;" horiz-adv-x="1320" d="M143 150q0 35 13 92l190 903q27 126 92.5 183.5t194.5 57.5h856l-57 -276h-721q-40 0 -56.5 -15t-25.5 -61l-150 -706q-4 -20 -4 -27q0 -20 12 -27.5t43 -7.5h445l67 316h-274l47 223h565l-170 -805h-870q-103 0 -150 37t-47 113zM629 1772q0 63 20 161h127 q-14 -72 -14 -110q0 -89 56.5 -133.5t191.5 -44.5q87 0 149.5 19t102 58.5t63 89t39.5 121.5h127q-17 -81 -40 -141.5t-62.5 -116t-93 -90.5t-133 -55.5t-181.5 -20.5q-192 0 -272 67t-80 196z" />
<glyph unicode="&#x11f;" horiz-adv-x="1255" d="M33 -434l53 248h692q33 0 47.5 12.5t22.5 46.5l194 915h-446q-33 0 -47.5 -12t-20.5 -45l-94 -442q-2 -10 -2 -23q0 -19 10.5 -26t36.5 -7h344l-49 -233h-491q-85 0 -123.5 29.5t-38.5 93.5q0 28 10 80l133 631q22 107 76 154.5t162 47.5h880l-270 -1267 q-24 -108 -77.5 -155.5t-162.5 -47.5h-839zM522 1421q0 59 21 162h127q-15 -77 -15 -110q0 -89 56.5 -134t191.5 -45q87 0 149.5 19t102 59t63 89.5t39.5 121.5h127q-17 -81 -40 -141.5t-62.5 -116t-93 -90.5t-133 -55.5t-181.5 -20.5q-192 0 -272 66.5t-80 195.5z" />
<glyph unicode="&#x120;" horiz-adv-x="1320" d="M143 150q0 35 13 92l190 903q27 126 92.5 183.5t194.5 57.5h856l-57 -276h-721q-40 0 -56.5 -15t-25.5 -61l-150 -706q-4 -20 -4 -27q0 -20 12 -27.5t43 -7.5h445l67 316h-274l47 223h565l-170 -805h-870q-103 0 -150 37t-47 113zM850 1509l65 312h259l-66 -312h-258z " />
<glyph unicode="&#x121;" horiz-adv-x="1255" d="M33 -434l53 248h692q33 0 47.5 12.5t22.5 46.5l194 915h-446q-33 0 -47.5 -12t-20.5 -45l-94 -442q-2 -10 -2 -23q0 -19 10.5 -26t36.5 -7h344l-49 -233h-491q-85 0 -123.5 29.5t-38.5 93.5q0 28 10 80l133 631q22 107 76 154.5t162 47.5h880l-270 -1267 q-24 -108 -77.5 -155.5t-162.5 -47.5h-839zM743 1159l66 311h258l-66 -311h-258z" />
<glyph unicode="&#x122;" horiz-adv-x="1320" d="M143 150q0 35 13 92l190 903q27 126 92.5 183.5t194.5 57.5h856l-57 -276h-721q-40 0 -56.5 -15t-25.5 -61l-150 -706q-4 -20 -4 -27q0 -20 12 -27.5t43 -7.5h445l67 316h-274l47 223h565l-170 -805h-870q-103 0 -150 37t-47 113zM391 -524l168 401h232l-201 -401h-199z " />
<glyph unicode="&#x123;" horiz-adv-x="1255" d="M33 -434l53 248h692q33 0 47.5 12.5t22.5 46.5l194 915h-446q-33 0 -47.5 -12t-20.5 -45l-94 -442q-2 -10 -2 -23q0 -19 10.5 -26t36.5 -7h344l-49 -233h-491q-85 0 -123.5 29.5t-38.5 93.5q0 28 10 80l133 631q22 107 76 154.5t162 47.5h880l-270 -1267 q-24 -108 -77.5 -155.5t-162.5 -47.5h-839zM748 1116l200 402h199l-168 -402h-231z" />
<glyph unicode="&#x126;" horiz-adv-x="1394" d="M113 0l293 1386h311l-39 -186h543l39 186h311l-293 -1386h-311l120 573h-542l-121 -573h-311zM600 834h543l39 184h-543z" />
<glyph unicode="&#x127;" horiz-adv-x="1333" d="M111 0l243 1155h-84l39 182h84l29 133h287l-29 -133h573l-39 -182h-573l-49 -231q76 112 203 112h454q84 0 122 -29t38 -96q0 -38 -8 -77l-176 -834h-285l154 731q4 20 4 25q0 18 -12 25t-39 7h-429q-31 0 -45.5 -12t-21.5 -45l-154 -731h-286z" />
<glyph unicode="&#x12a;" horiz-adv-x="552" d="M119 0l293 1386h311l-293 -1386h-311zM156 1649l39 182h944l-39 -182h-944z" />
<glyph unicode="&#x12b;" horiz-adv-x="839" d="M223 1298l39 183h944l-39 -183h-944zM276 0l220 1036h286l-219 -1036h-287z" />
<glyph unicode="&#x12c;" horiz-adv-x="552" d="M119 0l293 1386h311l-293 -1386h-311zM248 1772q0 63 20 161h127q-14 -72 -14 -110q0 -89 56.5 -133.5t191.5 -44.5q87 0 149.5 19t102 58.5t63 89t39.5 121.5h127q-17 -81 -40 -141.5t-62.5 -116t-93 -90.5t-133 -55.5t-181.5 -20.5q-192 0 -272 67t-80 196z" />
<glyph unicode="&#x12d;" horiz-adv-x="751" d="M231 0l220 1036h286l-219 -1036h-287zM270 1421q0 59 21 162h127q-15 -77 -15 -110q0 -89 56.5 -134t191.5 -45q87 0 149.5 19t102.5 58.5t63.5 89.5t39.5 122h127q-17 -81 -40 -141.5t-62.5 -116t-93 -90.5t-133 -55.5t-181.5 -20.5q-192 0 -272.5 66.5t-80.5 195.5z " />
<glyph unicode="&#x12e;" horiz-adv-x="552" d="M-141 -436q0 21 6 45l22 104q16 73 41 108.5t88 65.5l234 113h-131l293 1386h311l-293 -1386l-278 -143q-24 -12 -33 -24t-15 -42l-14 -63q-2 -6 -2 -19q0 -24 31 -24h243l-45 -209h-362q-96 0 -96 88z" />
<glyph unicode="&#x12f;" horiz-adv-x="518" d="M-170 -436q0 21 6 45l23 104q15 72 41 107.5t90 66.5l231 113h-106l219 1036h287l-220 -1036l-278 -143q-24 -12 -32.5 -24t-14.5 -42l-15 -63q-2 -6 -2 -19q0 -24 31 -24h244l-45 -209h-363q-96 0 -96 88zM360 1159l66 311h289l-66 -311h-289z" />
<glyph unicode="&#x130;" horiz-adv-x="552" d="M119 0l293 1386h311l-293 -1386h-311zM467 1509l65 312h259l-66 -312h-258z" />
<glyph unicode="&#x131;" horiz-adv-x="518" d="M115 0l219 1036h287l-220 -1036h-286z" />
<glyph unicode="&#x132;" horiz-adv-x="1669" d="M119 0l293 1386h311l-293 -1386h-311zM610 0l60 281h559q45 0 62 14.5t26 58.5l162 762h-242l57 270h553l-241 -1144q-27 -126 -92 -184t-193 -58h-711z" />
<glyph unicode="&#x133;" horiz-adv-x="1064" d="M115 0l219 1036h287l-220 -1036h-286zM274 -434l54 248h233q32 0 46 11.5t20 41.5l247 1169h287l-270 -1267q-24 -107 -77.5 -155t-160.5 -48h-379zM360 1159l66 311h289l-66 -311h-289zM899 1159l66 311h288l-65 -311h-289z" />
<glyph unicode="&#x136;" horiz-adv-x="1445" d="M113 0l293 1386h311l-293 -1386h-311zM455 -524l168 401h231l-201 -401h-198zM600 590l29 141l639 655h340l-568 -567h222q206 0 206 -182q0 -45 -12 -100l-113 -537h-319l104 494q7 35 7 49q0 27 -17.5 37t-62.5 10h-455z" />
<glyph unicode="&#x137;" horiz-adv-x="1323" d="M109 0l311 1470h289l-312 -1470h-288zM393 -524l168 401h232l-201 -401h-199zM539 426l22 104l539 506h315l-454 -415h198q156 0 156 -144q0 -37 -8 -76l-84 -401h-287l72 344q4 28 4 37q0 25 -14.5 35t-49.5 10h-409z" />
<glyph unicode="&#x139;" horiz-adv-x="1103" d="M111 0l292 1386h312l-234 -1105h619l-60 -281h-929zM381 1516l395 417h232l-445 -417h-182z" />
<glyph unicode="&#x13a;" horiz-adv-x="507" d="M111 0l311 1470h287l-312 -1470h-286zM367 1516l395 417h231l-444 -417h-182z" />
<glyph unicode="&#x13b;" horiz-adv-x="1103" d="M111 0l292 1386h312l-234 -1105h619l-60 -281h-929zM283 -524l168 401h231l-201 -401h-198z" />
<glyph unicode="&#x13c;" horiz-adv-x="507" d="M-45 -524l168 401h231l-200 -401h-199zM111 0l311 1470h287l-312 -1470h-286z" />
<glyph unicode="&#x13d;" horiz-adv-x="1103" d="M111 0l292 1386h312l-234 -1105h619l-60 -281h-929zM748 961l196 509h262l-229 -509h-229z" />
<glyph unicode="&#x13e;" horiz-adv-x="800" d="M111 0l311 1470h287l-312 -1470h-286zM653 961l197 509h262l-229 -509h-230z" />
<glyph unicode="&#x13f;" horiz-adv-x="1103" d="M111 0l292 1386h312l-234 -1105h619l-60 -281h-929zM727 618l66 312h258l-66 -312h-258z" />
<glyph unicode="&#x140;" horiz-adv-x="720" d="M111 0l311 1470h287l-312 -1470h-286zM586 586l65 311h258l-65 -311h-258z" />
<glyph unicode="&#x141;" horiz-adv-x="1130" d="M137 0l172 811l-125 -27l37 170l123 27l86 405h311l-69 -333l340 75l-37 -170l-340 -75l-127 -600h618l-59 -283h-930z" />
<glyph unicode="&#x142;" horiz-adv-x="575" d="M141 0l195 915l-131 -34l39 180l129 35l80 374h290l-61 -292l131 34l-37 -180l-133 -35l-211 -997h-291z" />
<glyph unicode="&#x143;" horiz-adv-x="1439" d="M111 0l292 1386h293l455 -827l174 827h291l-293 -1386h-207l-524 909l-193 -909h-288zM831 1516l396 417h231l-444 -417h-183z" />
<glyph unicode="&#x144;" horiz-adv-x="1329" d="M104 0l220 1036h276l-25 -112q73 112 203 112h465q84 0 122 -29t38 -96q0 -38 -8 -77l-176 -834h-285l153 731q1 4 2 9.5t2 9t1 6.5q0 18 -12.5 25t-39.5 7h-428q-31 0 -45.5 -12t-21.5 -45l-154 -731h-287zM702 1165l396 418h231l-444 -418h-183z" />
<glyph unicode="&#x145;" horiz-adv-x="1439" d="M111 0l292 1386h293l455 -827l174 827h291l-293 -1386h-207l-524 909l-193 -909h-288zM451 -524l167 401h232l-201 -401h-198z" />
<glyph unicode="&#x146;" horiz-adv-x="1329" d="M104 0l220 1036h276l-25 -112q73 112 203 112h465q84 0 122 -29t38 -96q0 -38 -8 -77l-176 -834h-285l153 731q1 4 2 9.5t2 9t1 6.5q0 18 -12.5 25t-39.5 7h-428q-31 0 -45.5 -12t-21.5 -45l-154 -731h-287zM375 -524l168 401h231l-201 -401h-198z" />
<glyph unicode="&#x147;" horiz-adv-x="1439" d="M111 0l292 1386h293l455 -827l174 827h291l-293 -1386h-207l-524 909l-193 -909h-288zM655 1933h205l197 -329l344 329h201l-449 -417h-244q-31 47 -127.5 208.5t-126.5 208.5z" />
<glyph unicode="&#x148;" horiz-adv-x="1329" d="M104 0l220 1036h276l-25 -112q73 112 203 112h465q84 0 122 -29t38 -96q0 -38 -8 -77l-176 -834h-285l153 731q1 4 2 9.5t2 9t1 6.5q0 18 -12.5 25t-39.5 7h-428q-31 0 -45.5 -12t-21.5 -45l-154 -731h-287zM539 1583h204l197 -330l344 330h201l-449 -418h-243 q-31 47 -127 209t-127 209z" />
<glyph unicode="&#x14a;" horiz-adv-x="1439" d="M111 0l292 1386h293l455 -827l174 827h291l-363 -1708q-24 -107 -77 -154.5t-160 -47.5h-381l53 248h236q31 0 44 11.5t19 41.5l70 323l-465 809l-193 -909h-288z" />
<glyph unicode="&#x14b;" horiz-adv-x="1329" d="M104 0l220 1036h276l-25 -112q73 112 203 112h465q84 0 122 -29t38 -96q0 -38 -8 -77l-246 -1156q-24 -107 -77 -154.5t-161 -47.5h-381l54 248h235q31 0 44.5 11.5t19.5 41.5l204 954q1 4 2 9.5t2 9t1 6.5q0 18 -12.5 25t-39.5 7h-428q-31 0 -45.5 -12t-21.5 -45 l-154 -731h-287z" />
<glyph unicode="&#x14c;" horiz-adv-x="1368" d="M143 150q0 35 13 92l190 903q27 126 92.5 183.5t194.5 57.5h690q102 0 148.5 -37t46.5 -114q0 -29 -11 -90l-190 -903q-27 -126 -93 -184t-194 -58h-690q-103 0 -150 37t-47 113zM481 319q0 -23 14 -33t46 -10h387q48 0 69 16t29 54l148 690q4 24 4 33q0 26 -16.5 36.5 t-55.5 10.5h-387q-40 0 -58.5 -17t-27.5 -63l-148 -690q-4 -20 -4 -27zM559 1649l39 182h944l-39 -182h-944z" />
<glyph unicode="&#x14d;" horiz-adv-x="1296" d="M133 123q0 28 10 80l133 631q22 107 76 154.5t162 47.5h705q88 0 125.5 -29.5t37.5 -93.5q0 -27 -10 -79l-133 -631q-24 -108 -77.5 -155.5t-162.5 -47.5h-704q-85 0 -123.5 29.5t-38.5 93.5zM449 283q0 -29 45 -29h405q37 0 53.5 12t22.5 43l88 422q4 20 4 25 q0 18 -12.5 25t-42.5 7h-406q-32 0 -45.5 -11.5t-19.5 -45.5l-88 -422q-4 -20 -4 -26zM451 1298l38 183h945l-39 -183h-944z" />
<glyph unicode="&#x14e;" horiz-adv-x="1368" d="M143 150q0 35 13 92l190 903q27 126 92.5 183.5t194.5 57.5h690q102 0 148.5 -37t46.5 -114q0 -29 -11 -90l-190 -903q-27 -126 -93 -184t-194 -58h-690q-103 0 -150 37t-47 113zM481 319q0 -23 14 -33t46 -10h387q48 0 69 16t29 54l148 690q4 24 4 33q0 26 -16.5 36.5 t-55.5 10.5h-387q-40 0 -58.5 -17t-27.5 -63l-148 -690q-4 -20 -4 -27zM651 1772q0 58 21 161h127q-15 -77 -15 -110q0 -89 56.5 -133.5t191.5 -44.5q87 0 149.5 19t102 58.5t63 89t39.5 121.5h127q-17 -81 -40 -141.5t-62 -116t-92.5 -90.5t-133 -55.5t-181.5 -20.5 q-192 0 -272.5 67t-80.5 196z" />
<glyph unicode="&#x14f;" horiz-adv-x="1296" d="M133 123q0 28 10 80l133 631q22 107 76 154.5t162 47.5h705q88 0 125.5 -29.5t37.5 -93.5q0 -27 -10 -79l-133 -631q-24 -108 -77.5 -155.5t-162.5 -47.5h-704q-85 0 -123.5 29.5t-38.5 93.5zM449 283q0 -29 45 -29h405q37 0 53.5 12t22.5 43l88 422q4 20 4 25 q0 18 -12.5 25t-42.5 7h-406q-32 0 -45.5 -11.5t-19.5 -45.5l-88 -422q-4 -20 -4 -26zM543 1421q0 64 20 162h127q-14 -72 -14 -110q0 -89 56.5 -134t191.5 -45q87 0 149.5 19t102 59t63 89.5t39.5 121.5h127q-17 -81 -40 -141.5t-62.5 -116t-93 -90.5t-133 -55.5 t-181.5 -20.5q-192 0 -272 66.5t-80 195.5z" />
<glyph unicode="&#x150;" horiz-adv-x="1368" d="M143 150q0 35 13 92l190 903q27 126 92.5 183.5t194.5 57.5h690q102 0 148.5 -37t46.5 -114q0 -29 -11 -90l-190 -903q-27 -126 -93 -184t-194 -58h-690q-103 0 -150 37t-47 113zM481 319q0 -23 14 -33t46 -10h387q48 0 69 16t29 54l148 690q4 24 4 33q0 26 -16.5 36.5 t-55.5 10.5h-387q-40 0 -58.5 -17t-27.5 -63l-148 -690q-4 -20 -4 -27zM571 1516l396 417h231l-444 -417h-183zM1022 1516l395 417h232l-445 -417h-182z" />
<glyph unicode="&#x151;" horiz-adv-x="1296" d="M133 123q0 28 10 80l133 631q22 107 76 154.5t162 47.5h705q88 0 125.5 -29.5t37.5 -93.5q0 -27 -10 -79l-133 -631q-24 -108 -77.5 -155.5t-162.5 -47.5h-704q-85 0 -123.5 29.5t-38.5 93.5zM449 283q0 -29 45 -29h405q37 0 53.5 12t22.5 43l88 422q4 20 4 25 q0 18 -12.5 25t-42.5 7h-406q-32 0 -45.5 -11.5t-19.5 -45.5l-88 -422q-4 -20 -4 -26zM461 1165l395 418h231l-444 -418h-182zM911 1165l396 418h231l-444 -418h-183z" />
<glyph unicode="&#x152;" horiz-adv-x="1976" d="M143 150q0 35 13 92l190 903q27 126 92.5 183.5t194.5 57.5h1524l-58 -270h-1382q-40 0 -57 -14.5t-25 -54.5l-148 -699q-4 -14 -4 -33q0 -22 12.5 -30.5t43.5 -8.5h391l157 738h320l-49 -226h475l-47 -221h-475l-62 -291h672l-57 -276h-1524q-103 0 -150 37t-47 113z " />
<glyph unicode="&#x153;" horiz-adv-x="2037" d="M133 123q0 28 10 80l133 631q22 107 76 154.5t162 47.5h1458q77 0 110.5 -28.5t33.5 -89.5q0 -32 -9 -76l-86 -408h-651l35 172h379l31 139q2 10 2 27q0 15 -9 22t-32 7h-430l-121 -565h714l-49 -236h-1595q-85 0 -123.5 29.5t-38.5 93.5zM444 264q0 -28 45 -28h447 l121 565h-447q-33 0 -45 -11.5t-20 -46.5l-96 -452q-5 -25 -5 -27z" />
<glyph unicode="&#x154;" horiz-adv-x="1357" d="M113 0l215 1014h311l-57 -269h426q44 0 60.5 14.5t25.5 57.5l49 225q4 24 4 33q0 24 -14.5 32.5t-49.5 8.5h-735l58 270h880q104 0 152.5 -37.5t48.5 -115.5q0 -30 -10 -82l-64 -301q-41 -185 -213 -203q156 -11 156 -121q0 -29 -4 -45l-101 -481h-311l94 453q4 24 4 30 q0 19 -13 26t-44 7h-449l-108 -516h-311zM791 1516l395 417h231l-444 -417h-182z" />
<glyph unicode="&#x155;" horiz-adv-x="923" d="M104 0l220 1036h278l-24 -112q38 59 86.5 85.5t115.5 26.5h301l-53 -248h-414q-31 0 -46.5 -12t-22.5 -45l-154 -731h-287zM500 1165l395 418h231l-444 -418h-182z" />
<glyph unicode="&#x156;" horiz-adv-x="1357" d="M113 0l215 1014h311l-57 -269h426q44 0 60.5 14.5t25.5 57.5l49 225q4 24 4 33q0 24 -14.5 32.5t-49.5 8.5h-735l58 270h880q104 0 152.5 -37.5t48.5 -115.5q0 -30 -10 -82l-64 -301q-41 -185 -213 -203q156 -11 156 -121q0 -29 -4 -45l-101 -481h-311l94 453q4 24 4 30 q0 19 -13 26t-44 7h-449l-108 -516h-311zM389 -524l168 401h231l-200 -401h-199z" />
<glyph unicode="&#x157;" horiz-adv-x="923" d="M-63 -524l167 401h232l-201 -401h-198zM104 0l220 1036h278l-24 -112q38 59 86.5 85.5t115.5 26.5h301l-53 -248h-414q-31 0 -46.5 -12t-22.5 -45l-154 -731h-287z" />
<glyph unicode="&#x158;" horiz-adv-x="1357" d="M113 0l215 1014h311l-57 -269h426q44 0 60.5 14.5t25.5 57.5l49 225q4 24 4 33q0 24 -14.5 32.5t-49.5 8.5h-735l58 270h880q104 0 152.5 -37.5t48.5 -115.5q0 -30 -10 -82l-64 -301q-41 -185 -213 -203q156 -11 156 -121q0 -29 -4 -45l-101 -481h-311l94 453q4 24 4 30 q0 19 -13 26t-44 7h-449l-108 -516h-311zM582 1933h204l197 -329l344 329h201l-449 -417h-243q-30 47 -126.5 208.5t-127.5 208.5z" />
<glyph unicode="&#x159;" horiz-adv-x="923" d="M104 0l220 1036h278l-24 -112q38 59 86.5 85.5t115.5 26.5h301l-53 -248h-414q-31 0 -46.5 -12t-22.5 -45l-154 -731h-287zM326 1583h204l197 -330l344 330h201l-449 -418h-243q-30 47 -126.5 209t-127.5 209z" />
<glyph unicode="&#x15a;" horiz-adv-x="1323" d="M106 0l58 270h739q37 0 55 15t25 53l41 192q2 8 2 23q0 20 -12 28.5t-41 8.5h-547q-160 0 -160 137q0 25 6 59l76 359q27 127 92 184t197 57h862l-55 -264h-735q-32 0 -47 -14t-23 -51l-39 -183q-4 -20 -4 -26q0 -17 10 -24t35 -7h555q162 0 162 -139q0 -27 -6 -57 l-80 -379q-27 -126 -92.5 -184t-194.5 -58h-879zM774 1516l395 417h232l-445 -417h-182z" />
<glyph unicode="&#x15b;" horiz-adv-x="1271" d="M106 0l50 238h710q32 0 44 9.5t18 39.5l22 102q2 6 2 17q0 26 -41 26h-555q-133 0 -133 103q0 21 6 45l58 276q19 94 71.5 137t157.5 43h856l-49 -231h-707q-32 0 -46.5 -12t-20.5 -43l-19 -86q-2 -6 -2 -19q0 -33 43 -33h562q135 0 135 -104q0 -13 -4 -41l-62 -287 q-21 -95 -73.5 -137.5t-157.5 -42.5h-865zM674 1165l395 418h231l-444 -418h-182z" />
<glyph unicode="&#x15e;" horiz-adv-x="1323" d="M106 0l58 270h739q37 0 55 15t25 53l41 192q2 8 2 23q0 20 -12 28.5t-41 8.5h-547q-160 0 -160 137q0 25 6 59l76 359q27 127 92 184t197 57h862l-55 -264h-735q-32 0 -47 -14t-23 -51l-39 -183q-4 -20 -4 -26q0 -17 10 -24t35 -7h555q162 0 162 -139q0 -27 -6 -57 l-80 -379q-27 -126 -92.5 -184t-194.5 -58h-879zM393 -524l168 401h232l-201 -401h-199z" />
<glyph unicode="&#x15f;" horiz-adv-x="1271" d="M106 0l50 238h710q32 0 44 9.5t18 39.5l22 102q2 6 2 17q0 26 -41 26h-555q-133 0 -133 103q0 21 6 45l58 276q19 94 71.5 137t157.5 43h856l-49 -231h-707q-32 0 -46.5 -12t-20.5 -43l-19 -86q-2 -6 -2 -19q0 -33 43 -33h562q135 0 135 -104q0 -13 -4 -41l-62 -287 q-21 -95 -73.5 -137.5t-157.5 -42.5h-865zM367 -524l168 401h231l-201 -401h-198z" />
<glyph unicode="&#x160;" horiz-adv-x="1323" d="M106 0l58 270h739q37 0 55 15t25 53l41 192q2 8 2 23q0 20 -12 28.5t-41 8.5h-547q-160 0 -160 137q0 25 6 59l76 359q27 127 92 184t197 57h862l-55 -264h-735q-32 0 -47 -14t-23 -51l-39 -183q-4 -20 -4 -26q0 -17 10 -24t35 -7h555q162 0 162 -139q0 -27 -6 -57 l-80 -379q-27 -126 -92.5 -184t-194.5 -58h-879zM618 1933h205l197 -329l344 329h201l-449 -417h-244q-31 47 -127 208.5t-127 208.5z" />
<glyph unicode="&#x161;" horiz-adv-x="1271" d="M106 0l50 238h710q32 0 44 9.5t18 39.5l22 102q2 6 2 17q0 26 -41 26h-555q-133 0 -133 103q0 21 6 45l58 276q19 94 71.5 137t157.5 43h856l-49 -231h-707q-32 0 -46.5 -12t-20.5 -43l-19 -86q-2 -6 -2 -19q0 -33 43 -33h562q135 0 135 -104q0 -13 -4 -41l-62 -287 q-21 -95 -73.5 -137.5t-157.5 -42.5h-865zM498 1583h204l197 -330l344 330h201l-449 -418h-243q-30 47 -126.5 209t-127.5 209z" />
<glyph unicode="&#x162;" horiz-adv-x="1091" d="M244 -524l168 401h231l-201 -401h-198zM287 1114l57 272h985l-57 -272h-338l-236 -1114h-311l236 1114h-336z" />
<glyph unicode="&#x163;" horiz-adv-x="700" d="M82 -524l168 401h231l-200 -401h-199zM137 123q0 28 10 80l238 1122h287l-62 -289h250l-47 -225h-250l-112 -530q-5 -25 -5 -27q0 -17 11 -23t35 -6h188l-47 -225h-334q-85 0 -123.5 29.5t-38.5 93.5z" />
<glyph unicode="&#x164;" horiz-adv-x="1091" d="M287 1114l57 272h985l-57 -272h-338l-236 -1114h-311l236 1114h-336zM483 1933h205l197 -329l344 329h201l-449 -417h-244q-30 47 -127 208.5t-127 208.5z" />
<glyph unicode="&#x165;" horiz-adv-x="1009" d="M137 123q0 28 10 80l238 1122h287l-62 -289h250l-47 -225h-250l-112 -530q-5 -25 -5 -27q0 -17 11 -23t35 -6h188l-47 -225h-334q-85 0 -123.5 29.5t-38.5 93.5zM862 961l197 509h262l-229 -509h-230z" />
<glyph unicode="&#x166;" horiz-adv-x="1091" d="M287 1114l57 272h985l-57 -272h-338l-90 -422h176l-37 -172h-176l-109 -520h-311l109 520h-172l36 172h172l91 422h-336z" />
<glyph unicode="&#x167;" horiz-adv-x="700" d="M137 123q0 28 10 80l238 1122h287l-62 -289h250l-47 -225h-250l-45 -205h227l-34 -172h-228l-32 -153q-5 -25 -5 -27q0 -17 11 -23t35 -6h188l-47 -225h-334q-85 0 -123.5 29.5t-38.5 93.5z" />
<glyph unicode="&#x168;" d="M150 152q0 49 10 90l241 1144h312l-219 -1036q-7 -28 -7 -37q0 -22 14 -29.5t48 -7.5h409q42 0 61 15t28 59l219 1036h299l-242 -1144q-27 -126 -93 -184t-194 -58h-690q-104 0 -150 37t-46 115zM602 1628l39 184q49 36 116.5 54t127.5 18q59 0 127 -25.5t131.5 -51 t113.5 -25.5q139 0 263 82l-41 -185q-47 -36 -114 -53.5t-128 -17.5q-69 0 -137.5 25t-129 50t-108.5 25q-143 0 -260 -80z" />
<glyph unicode="&#x169;" horiz-adv-x="1310" d="M137 125q0 30 10 78l177 833h286l-155 -731q-4 -20 -4 -26q0 -18 11 -25.5t38 -7.5h411q32 0 47.5 12.5t22.5 46.5l156 731h286l-219 -1036h-276l22 111q-38 -58 -86 -84.5t-114 -26.5h-451q-83 0 -122.5 29.5t-39.5 95.5zM492 1278l38 184q49 36 116.5 54t127.5 18 q59 0 127 -25.5t132 -51t114 -25.5q140 0 262 81l-41 -184q-48 -36 -115 -54t-127 -18q-69 0 -137.5 25.5t-128.5 50.5t-108 25q-143 0 -260 -80z" />
<glyph unicode="&#x16a;" d="M150 152q0 49 10 90l241 1144h312l-219 -1036q-7 -28 -7 -37q0 -22 14 -29.5t48 -7.5h409q42 0 61 15t28 59l219 1036h299l-242 -1144q-27 -126 -93 -184t-194 -58h-690q-104 0 -150 37t-46 115zM567 1649l39 182h944l-39 -182h-944z" />
<glyph unicode="&#x16b;" horiz-adv-x="1310" d="M137 125q0 30 10 78l177 833h286l-155 -731q-4 -20 -4 -26q0 -18 11 -25.5t38 -7.5h411q32 0 47.5 12.5t22.5 46.5l156 731h286l-219 -1036h-276l22 111q-38 -58 -86 -84.5t-114 -26.5h-451q-83 0 -122.5 29.5t-39.5 95.5zM457 1298l39 183h944l-39 -183h-944z" />
<glyph unicode="&#x16c;" d="M150 152q0 49 10 90l241 1144h312l-219 -1036q-7 -28 -7 -37q0 -22 14 -29.5t48 -7.5h409q42 0 61 15t28 59l219 1036h299l-242 -1144q-27 -126 -93 -184t-194 -58h-690q-104 0 -150 37t-46 115zM659 1772q0 58 21 161h127q-14 -72 -14 -110q0 -89 56 -133.5t191 -44.5 q87 0 149.5 19t102.5 58.5t63.5 89t39.5 121.5h127q-17 -81 -40 -141.5t-62.5 -116t-93 -90.5t-133 -55.5t-181.5 -20.5q-192 0 -272.5 67t-80.5 196z" />
<glyph unicode="&#x16d;" horiz-adv-x="1310" d="M137 125q0 30 10 78l177 833h286l-155 -731q-4 -20 -4 -26q0 -18 11 -25.5t38 -7.5h411q32 0 47.5 12.5t22.5 46.5l156 731h286l-219 -1036h-276l22 111q-38 -58 -86 -84.5t-114 -26.5h-451q-83 0 -122.5 29.5t-39.5 95.5zM549 1421q0 64 20 162h127q-14 -72 -14 -110 q0 -89 56.5 -134t191.5 -45q87 0 149.5 19t102 59t63 89.5t39.5 121.5h127q-17 -81 -40 -141.5t-62.5 -116t-93 -90.5t-133 -55.5t-181.5 -20.5q-192 0 -272 66.5t-80 195.5z" />
<glyph unicode="&#x16e;" d="M150 152q0 49 10 90l241 1144h312l-219 -1036q-7 -28 -7 -37q0 -22 14 -29.5t48 -7.5h409q42 0 61 15t28 59l219 1036h299l-242 -1144q-27 -126 -93 -184t-194 -58h-690q-104 0 -150 37t-46 115zM780 1542q0 24 6 51l45 215q14 67 47.5 96t100.5 29h240q55 0 78.5 -17.5 t23.5 -57.5q0 -23 -6 -50l-45 -215q-14 -67 -48 -96t-102 -29h-239q-54 0 -77.5 17.5t-23.5 56.5zM891 1593q0 -16 7.5 -21t27.5 -5h188q27 0 36 8t15 37l41 186q2 6 2 19t-8.5 18.5t-28.5 5.5h-188q-24 0 -34 -9t-15 -34l-41 -186q-2 -6 -2 -19z" />
<glyph unicode="&#x16f;" horiz-adv-x="1310" d="M137 125q0 30 10 78l177 833h286l-155 -731q-4 -20 -4 -26q0 -18 11 -25.5t38 -7.5h411q32 0 47.5 12.5t22.5 46.5l156 731h286l-219 -1036h-276l22 111q-38 -58 -86 -84.5t-114 -26.5h-451q-83 0 -122.5 29.5t-39.5 95.5zM672 1192q0 24 6 51l45 215q14 67 47 96t100 29 h240q55 0 78.5 -18t23.5 -58q0 -22 -6 -49l-45 -215q-14 -67 -47.5 -96t-101.5 -29h-240q-53 0 -76.5 17.5t-23.5 56.5zM782 1243q0 -16 7.5 -21t27.5 -5h189q27 0 36 8t15 37l41 186q2 6 2 18q0 25 -37 25h-189q-24 0 -34 -9t-15 -34l-41 -186q-2 -6 -2 -19z" />
<glyph unicode="&#x170;" d="M150 152q0 49 10 90l241 1144h312l-219 -1036q-7 -28 -7 -37q0 -22 14 -29.5t48 -7.5h409q42 0 61 15t28 59l219 1036h299l-242 -1144q-27 -126 -93 -184t-194 -58h-690q-104 0 -150 37t-46 115zM578 1516l395 417h231l-444 -417h-182zM1028 1516l395 417h232l-445 -417 h-182z" />
<glyph unicode="&#x171;" horiz-adv-x="1310" d="M137 125q0 30 10 78l177 833h286l-155 -731q-4 -20 -4 -26q0 -18 11 -25.5t38 -7.5h411q32 0 47.5 12.5t22.5 46.5l156 731h286l-219 -1036h-276l22 111q-38 -58 -86 -84.5t-114 -26.5h-451q-83 0 -122.5 29.5t-39.5 95.5zM469 1165l395 418h232l-445 -418h-182z M920 1165l395 418h231l-444 -418h-182z" />
<glyph unicode="&#x172;" d="M150 152q0 49 10 90l241 1144h312l-219 -1036q-7 -28 -7 -37q0 -22 14 -29.5t48 -7.5h409q42 0 61 15t28 59l219 1036h299l-242 -1144q-27 -126 -93 -184t-194 -58h-145l-279 -143q-24 -12 -32.5 -24t-14.5 -42l-14 -63q-2 -6 -2 -19q0 -24 31 -24h243l-45 -209h-364 q-97 0 -97 88q0 17 7 45l22 104q15 72 41 107.5t90 66.5l234 113h-365q-104 0 -150 37t-46 115z" />
<glyph unicode="&#x173;" horiz-adv-x="1310" d="M137 125q0 30 10 78l177 833h286l-155 -731q-4 -20 -4 -26q0 -18 11 -25.5t38 -7.5h411q32 0 47.5 12.5t22.5 46.5l156 731h286l-219 -1036l-278 -143q-24 -12 -32.5 -24t-14.5 -42l-15 -63q-2 -6 -2 -19q0 -24 31 -24h244l-45 -209h-365q-96 0 -96 88q0 21 6 45l22 104 q15 72 41 107t91 67l233 113h-96l22 111q-38 -58 -86 -84.5t-114 -26.5h-451q-83 0 -122.5 29.5t-39.5 95.5z" />
<glyph unicode="&#x174;" horiz-adv-x="2043" d="M326 1386h319l23 -1015l501 1015h312l43 -1013l473 1013h305l-670 -1386h-350l-51 989l-504 -989h-348zM868 1516l447 417h244l256 -417h-205l-197 329l-346 -329h-199z" />
<glyph unicode="&#x175;" horiz-adv-x="1845" d="M248 1036h315l27 -741l389 741h338l55 -739l361 739h303l-541 -1036h-362l-64 719l-393 -719h-357zM694 1165l447 418h243l256 -418h-204l-197 330l-346 -330h-199z" />
<glyph unicode="&#x176;" horiz-adv-x="1263" d="M319 1386h326l170 -546l402 546h311l-621 -815l-121 -571h-311l121 571zM477 1516l447 417h243l256 -417h-204l-197 329l-346 -329h-199z" />
<glyph unicode="&#x177;" horiz-adv-x="1249" d="M31 -434l53 248h688q35 0 48.5 12t21.5 47l28 127h-589q-85 0 -123.5 29.5t-38.5 93.5q0 28 10 80l176 833h287l-158 -743q-4 -20 -4 -27q0 -33 49 -33h441l170 803h288l-270 -1267q-24 -107 -78 -155t-164 -48h-835zM397 1165l447 418h243l256 -418h-204l-197 330 l-346 -330h-199z" />
<glyph unicode="&#x178;" horiz-adv-x="1263" d="M319 1386h326l170 -546l402 546h311l-621 -815l-121 -571h-311l121 571zM528 1509l66 312h258l-66 -312h-258zM1116 1509l66 312h258l-66 -312h-258z" />
<glyph unicode="&#x179;" horiz-adv-x="1232" d="M100 0l54 252l839 862h-643l58 272h1017l-49 -239l-827 -871h641l-57 -276h-1033zM729 1516l395 417h232l-445 -417h-182z" />
<glyph unicode="&#x17a;" horiz-adv-x="1169" d="M96 0l47 227l713 568h-590l51 241h973l-43 -205l-704 -585h579l-51 -246h-975zM623 1165l395 418h231l-444 -418h-182z" />
<glyph unicode="&#x17b;" horiz-adv-x="1232" d="M100 0l54 252l839 862h-643l58 272h1017l-49 -239l-827 -871h641l-57 -276h-1033zM817 1509l66 312h258l-66 -312h-258z" />
<glyph unicode="&#x17c;" horiz-adv-x="1169" d="M96 0l47 227l713 568h-590l51 241h973l-43 -205l-704 -585h579l-51 -246h-975zM700 1159l66 311h258l-66 -311h-258z" />
<glyph unicode="&#x17d;" horiz-adv-x="1232" d="M100 0l54 252l839 862h-643l58 272h1017l-49 -239l-827 -871h641l-57 -276h-1033zM553 1933h205l196 -329l344 329h201l-448 -417h-244q-31 47 -127 208.5t-127 208.5z" />
<glyph unicode="&#x17e;" horiz-adv-x="1169" d="M96 0l47 227l713 568h-590l51 241h973l-43 -205l-704 -585h579l-51 -246h-975zM459 1583h205l196 -330l344 330h201l-449 -418h-243q-30 47 -127 209t-127 209z" />
<glyph unicode="&#x192;" horiz-adv-x="927" d="M-35 -344l39 192h49q84 0 130.5 37.5t82.5 132.5l283 754h-148l39 182h176l52 129q67 169 168.5 236t300.5 67h55l-41 -192h-72q-129 0 -174 -121l-43 -119h187l-39 -182h-215l-287 -772q-71 -192 -177 -268t-311 -76h-55z" />
<glyph unicode="&#x218;" horiz-adv-x="1323" d="M106 0l58 270h739q37 0 55 15t25 53l41 192q2 8 2 23q0 20 -12 28.5t-41 8.5h-547q-160 0 -160 137q0 25 6 59l76 359q27 127 92 184t197 57h862l-55 -264h-735q-32 0 -47 -14t-23 -51l-39 -183q-4 -20 -4 -26q0 -17 10 -24t35 -7h555q162 0 162 -139q0 -27 -6 -57 l-80 -379q-27 -126 -92.5 -184t-194.5 -58h-879zM393 -524l168 401h232l-201 -401h-199z" />
<glyph unicode="&#x219;" horiz-adv-x="1271" d="M106 0l50 238h710q32 0 44 9.5t18 39.5l22 102q2 6 2 17q0 26 -41 26h-555q-133 0 -133 103q0 21 6 45l58 276q19 94 71.5 137t157.5 43h856l-49 -231h-707q-32 0 -46.5 -12t-20.5 -43l-19 -86q-2 -6 -2 -19q0 -33 43 -33h562q135 0 135 -104q0 -13 -4 -41l-62 -287 q-21 -95 -73.5 -137.5t-157.5 -42.5h-865zM367 -524l168 401h231l-201 -401h-198z" />
<glyph unicode="&#x21a;" horiz-adv-x="1091" d="M244 -524l168 401h231l-201 -401h-198zM287 1114l57 272h985l-57 -272h-338l-236 -1114h-311l236 1114h-336z" />
<glyph unicode="&#x21b;" horiz-adv-x="700" d="M82 -524l168 401h231l-200 -401h-199zM137 123q0 28 10 80l238 1122h287l-62 -289h250l-47 -225h-250l-112 -530q-5 -25 -5 -27q0 -17 11 -23t35 -6h188l-47 -225h-334q-85 0 -123.5 29.5t-38.5 93.5z" />
<glyph unicode="&#x2c6;" horiz-adv-x="1171" d="M358 1165l447 418h244l256 -418h-205l-197 330l-346 -330h-199z" />
<glyph unicode="&#x2da;" horiz-adv-x="710" d="M371 1192q0 24 6 51l45 215q14 67 47 96t100 29h240q55 0 78.5 -18t23.5 -58q0 -22 -6 -49l-45 -215q-14 -67 -47.5 -96t-101.5 -29h-240q-53 0 -76.5 17.5t-23.5 56.5zM481 1243q0 -16 7.5 -21t27.5 -5h189q27 0 36 8t15 37l41 186q2 6 2 18q0 25 -37 25h-189 q-24 0 -34 -9t-15 -34l-41 -186q-2 -6 -2 -19z" />
<glyph unicode="&#x2dc;" horiz-adv-x="1091" d="M383 1278l39 184q49 36 116.5 54t127.5 18q59 0 127 -25.5t131.5 -51t113.5 -25.5q140 0 262 81l-40 -184q-48 -36 -115 -54t-127 -18q-69 0 -137.5 25.5t-129 50.5t-108.5 25q-143 0 -260 -80z" />
<glyph unicode="&#x1e80;" horiz-adv-x="2043" d="M326 1386h319l23 -1015l501 1015h312l43 -1013l473 1013h305l-670 -1386h-350l-51 989l-504 -989h-348zM1102 1933h231l215 -417h-182z" />
<glyph unicode="&#x1e81;" horiz-adv-x="1845" d="M248 1036h315l27 -741l389 741h338l55 -739l361 739h303l-541 -1036h-362l-64 719l-393 -719h-357zM928 1583h231l215 -418h-182z" />
<glyph unicode="&#x1e82;" horiz-adv-x="2043" d="M326 1386h319l23 -1015l501 1015h312l43 -1013l473 1013h305l-670 -1386h-350l-51 989l-504 -989h-348zM1135 1516l395 417h231l-444 -417h-182z" />
<glyph unicode="&#x1e83;" horiz-adv-x="1845" d="M248 1036h315l27 -741l389 741h338l55 -739l361 739h303l-541 -1036h-362l-64 719l-393 -719h-357zM961 1165l395 418h231l-444 -418h-182z" />
<glyph unicode="&#x1e84;" horiz-adv-x="2043" d="M326 1386h319l23 -1015l501 1015h312l43 -1013l473 1013h305l-670 -1386h-350l-51 989l-504 -989h-348zM918 1509l65 312h258l-65 -312h-258zM1505 1509l66 312h258l-66 -312h-258z" />
<glyph unicode="&#x1e85;" horiz-adv-x="1845" d="M248 1036h315l27 -741l389 741h338l55 -739l361 739h303l-541 -1036h-362l-64 719l-393 -719h-357zM745 1159l66 311h258l-65 -311h-259zM1333 1159l66 311h258l-66 -311h-258z" />
<glyph unicode="&#x1ef2;" horiz-adv-x="1263" d="M319 1386h326l170 -546l402 546h311l-621 -815l-121 -571h-311l121 571zM711 1933h231l215 -417h-182z" />
<glyph unicode="&#x1ef3;" horiz-adv-x="1249" d="M31 -434l53 248h688q35 0 48.5 12t21.5 47l28 127h-589q-85 0 -123.5 29.5t-38.5 93.5q0 28 10 80l176 833h287l-158 -743q-4 -20 -4 -27q0 -33 49 -33h441l170 803h288l-270 -1267q-24 -107 -78 -155t-164 -48h-835zM631 1583h231l215 -418h-182z" />
<glyph unicode="&#x2000;" horiz-adv-x="966" />
<glyph unicode="&#x2001;" horiz-adv-x="1933" />
<glyph unicode="&#x2002;" horiz-adv-x="966" />
<glyph unicode="&#x2003;" horiz-adv-x="1933" />
<glyph unicode="&#x2004;" horiz-adv-x="644" />
<glyph unicode="&#x2005;" horiz-adv-x="483" />
<glyph unicode="&#x2006;" horiz-adv-x="322" />
<glyph unicode="&#x2007;" horiz-adv-x="322" />
<glyph unicode="&#x2008;" horiz-adv-x="241" />
<glyph unicode="&#x2009;" horiz-adv-x="386" />
<glyph unicode="&#x200a;" horiz-adv-x="107" />
<glyph unicode="&#x2010;" horiz-adv-x="788" d="M195 618l36 173h660l-37 -173h-659z" />
<glyph unicode="&#x2011;" horiz-adv-x="788" d="M195 618l36 173h660l-37 -173h-659z" />
<glyph unicode="&#x2012;" horiz-adv-x="788" d="M195 618l36 173h660l-37 -173h-659z" />
<glyph unicode="&#x2013;" horiz-adv-x="1423" d="M190 606l43 195h1293l-43 -195h-1293z" />
<glyph unicode="&#x2014;" horiz-adv-x="2355" d="M190 606l43 195h2227l-43 -195h-2227z" />
<glyph unicode="&#x2018;" horiz-adv-x="530" d="M426 1470h260l-18 -509h-230z" />
<glyph unicode="&#x2019;" horiz-adv-x="530" d="M266 961l197 509h262l-229 -509h-230z" />
<glyph unicode="&#x201a;" horiz-adv-x="530" d="M20 -201l197 510h262l-229 -510h-230z" />
<glyph unicode="&#x201c;" horiz-adv-x="1060" d="M426 1470h260l-18 -509h-230zM956 1470h261l-19 -509h-229z" />
<glyph unicode="&#x201d;" horiz-adv-x="1060" d="M266 961l197 509h262l-229 -509h-230zM797 961l196 509h262l-229 -509h-229z" />
<glyph unicode="&#x201e;" horiz-adv-x="1060" d="M20 -201l197 510h262l-229 -510h-230zM551 -201l197 510h262l-230 -510h-229z" />
<glyph unicode="&#x2020;" horiz-adv-x="1069" d="M324 995l28 140h348l54 251h164l-54 -251h332l-29 -140h-331l-213 -997h-164l213 997h-348z" />
<glyph unicode="&#x2021;" horiz-adv-x="1071" d="M166 252l29 137h346l129 604h-346l28 142h346l54 251h163l-53 -251h332l-29 -142h-331l-129 -604h331l-28 -137h-332l-53 -252h-164l53 252h-346z" />
<glyph unicode="&#x2022;" horiz-adv-x="643" d="M229 537q0 15 7 43l43 202q12 59 42 85t91 26h198q49 0 69.5 -16t20.5 -52q0 -27 -4 -43l-43 -202q-12 -59 -42.5 -86t-90.5 -27h-198q-49 0 -71 17t-22 53z" />
<glyph unicode="&#x2026;" horiz-adv-x="2447" d="M115 0l65 309h262l-65 -309h-262zM1094 0l65 309h262l-65 -309h-262zM2073 0l65 309h262l-65 -309h-262z" />
<glyph unicode="&#x202f;" horiz-adv-x="386" />
<glyph unicode="&#x2030;" horiz-adv-x="2201" d="M266 788q0 21 6 48l97 450q12 63 45 92t100 29h330q53 0 76.5 -19t23.5 -59q0 -11 -4 -43l-96 -450q-14 -63 -48 -92t-100 -29h-329q-53 0 -77 18t-24 55zM281 0l1128 1386h164l-1129 -1386h-163zM467 901q0 -18 27 -18h145q20 0 29 6.5t12 23.5l63 297v13q0 22 -28 22 h-146q-31 0 -37 -33l-63 -299q-2 -4 -2 -12zM905 53q0 20 6 47l97 451q12 63 45 92t100 29h330q53 0 76.5 -19t23.5 -59q0 -11 -4 -43l-96 -451q-14 -63 -48 -91.5t-100 -28.5h-329q-53 0 -77 18t-24 55zM1106 166q0 -19 27 -19h145q20 0 29 7t12 24l63 297v12q0 23 -28 23 h-146q-31 0 -37 -33l-63 -299q-2 -4 -2 -12zM1550 53q0 20 6 47l97 451q12 63 45 92t100 29h330q53 0 76.5 -19t23.5 -59q0 -11 -4 -43l-96 -451q-14 -63 -48 -91.5t-100 -28.5h-329q-53 0 -77 18t-24 55zM1751 166q0 -19 27 -19h145q20 0 29 7t12 24l64 297v12q0 23 -29 23 h-146q-17 0 -25 -7.5t-11 -25.5l-64 -299q-2 -4 -2 -12z" />
<glyph unicode="&#x2039;" horiz-adv-x="546" d="M172 526l53 246l490 344l-47 -223l-367 -248l260 -256l-47 -217z" />
<glyph unicode="&#x203a;" horiz-adv-x="546" d="M96 172l49 223l365 246l-258 256l45 219l342 -356l-51 -246z" />
<glyph unicode="&#x2044;" horiz-adv-x="395" d="M-301 0l1128 1386h164l-1128 -1386h-164z" />
<glyph unicode="&#x205f;" horiz-adv-x="483" />
<glyph unicode="&#x20ac;" horiz-adv-x="1191" d="M147 512l52 133h65l25 113h-90l53 133h65l54 254q27 127 91 184t193 57h754l-139 -266h-541q-39 0 -56 -15.5t-26 -57.5l-33 -156h512l-69 -133h-471l-25 -113h434l-69 -133h-391l-37 -170q-4 -14 -4 -33q0 -22 12 -30.5t43 -8.5h604l-57 -270h-734q-103 0 -148.5 36 t-45.5 114q0 39 12 92l58 270h-91z" />
<glyph unicode="&#x2122;" horiz-adv-x="1591" d="M324 1221l34 165h531l-35 -165h-168l-119 -562h-190l119 562h-172zM836 659l153 727h191l96 -464l289 464h194l-153 -727h-168l80 377l-246 -377h-107l-84 373l-80 -373h-165z" />
<glyph unicode="&#x25fc;" horiz-adv-x="1034" d="M0 0v1034h1034v-1034h-1034z" />
</font>
</defs>
</svg>
